<?xml version="1.0" encoding="utf-8"?>
<!-- Generator: Adobe Illustrator 23.0.4, SVG Export Plug-In . SVG Version: 6.00 Build 0)  -->
<svg version="1.1" id="圖層_1" xmlns="http://www.w3.org/2000/svg" xmlns:xlink="http://www.w3.org/1999/xlink" x="0px" y="0px"
	 viewBox="0 0 220 200" style="enable-background:new 0 0 220 200;" xml:space="preserve">
<style type="text/css">
	.st0{fill:#003781;}
	.st1{enable-background:new    ;}
	.st2{fill:#3C3C3C;}
</style>
<path class="st0" d="M151,21.1c-22.3-22.3-58.6-22.3-80.9,0c-18.1,18.1-22,46.2-9.4,68.5c4.7,8.3,11.3,15.3,19.4,20.4
	c0.6,0.4,1.4,0.6,2.1,0.6h0.3c1.7,0.1,3.4-0.9,4-2.5V108c0.2-0.2,0.4-0.5,0.6-0.8c4.3-7,9.3-13.4,15.1-19.2
	c5-5.1,10.7-9.4,16.9-12.9l2.4-1.2l13.2,34.1c0.6,1.5,2.1,2.5,3.7,2.6c0.5,0,1-0.1,1.4-0.3c2-0.8,3-3.1,2.3-5.1l-13.2-34.1
	c3-0.9,6-1.4,9.1-1.6l0.2,3.1c0.1,2,1.9,3.2,3.3,2.1l4.5-3.8l4.5-3.8c1.2-1.2,1.2-3.1,0-4.3l-0.3-0.3l-5-3.2l-5-3.2
	c-1.4-0.9-3.1,0.5-3,2.5l0.2,3c-3.9,0.2-7.8,0.9-11.5,2l-11.6-30.3c-0.3-0.7-0.7-1.3-1.3-1.7c-0.6-0.6-1.5-0.9-2.3-0.9h-8
	c-1.9,0-3.5,1.6-3.5,3.5s1.6,3.5,3.5,3.5h2.5l-24.5,63c-12.2-9.3-19.4-23.8-19.4-39.2c0.4-27.2,22.8-48.9,50-48.6
	c26.7,0.4,48.2,21.9,48.6,48.6c0,2.2,1.8,4,4,4s4-1.8,4-4C167.9,46.3,161.8,31.8,151,21.1L151,21.1z M118.6,66.5
	c-1.2,0.5-2.3,1.1-3.4,1.7c-6.9,3.8-13.3,8.7-18.8,14.3l-0.1,0.1l14.3-36.9L118.6,66.5z"/>
<g class="st1">
	<path class="st0" d="M71.6,148.5H62l-2.1,7.6h-6l9.5-29.6h7l9.5,29.6h-6.2C73.7,156.1,71.6,148.5,71.6,148.5z M70.3,143.9l-0.9-3.2
		c-0.9-3.1-1.7-6.5-2.6-9.7h-0.2c-0.8,3.2-1.6,6.6-2.5,9.7l-0.9,3.2H70.3z M82.8,149.8v-25.6h5.8v25.9c0,1.3,0.6,1.8,1.2,1.8
		c0.2,0,0.4,0,0.8-0.1l0.7,4.4c-0.7,0.3-1.7,0.5-3,0.5C84.3,156.6,82.8,154,82.8,149.8L82.8,149.8z M95.4,133.7h4.8l0.4,2.3h0.2
		c1.9-1.6,4.2-2.9,6.6-2.9c5.5,0,8.8,4.5,8.8,11.4c0,7.7-4.6,12.1-9.5,12.1c-2,0-3.8-0.9-5.6-2.4l0.2,3.7v6.8h-5.8L95.4,133.7
		L95.4,133.7z M110.2,144.6c0-4.3-1.4-6.6-4.4-6.6c-1.5,0-2.9,0.8-4.4,2.3v9.8c1.4,1.2,2.9,1.7,4.1,1.7
		C108.1,151.8,110.2,149.5,110.2,144.6z M121.2,124.2h5.8v8l-0.2,4.2c1.8-1.7,4-3.3,7-3.3c4.8,0,6.9,3.4,6.9,9v14h-5.9v-13.2
		c0-3.4-1-4.7-3.2-4.7c-1.8,0-3,0.9-4.7,2.5v15.4h-5.8C121.1,156.1,121.2,124.2,121.2,124.2z M145.7,150c0-4.8,3.9-7.3,12.9-8.3
		c-0.1-2.2-1-3.9-3.8-3.9c-2.1,0-4.1,0.9-6.2,2.1l-2.1-3.9c2.6-1.6,5.8-3,9.4-3c5.7,0,8.6,3.4,8.6,9.9V156h-4.8l-0.4-2.4h-0.1
		c-2,1.7-4.2,3-6.8,3C148.3,156.6,145.7,153.8,145.7,150L145.7,150z M158.6,149.8v-4.5c-5.4,0.7-7.3,2.2-7.3,4.2
		c0,1.8,1.2,2.5,3,2.5C155.9,152,157.2,151.2,158.6,149.8z"/>
</g>
<g class="st1">
	<path class="st2" d="M43.2,188.7c1.4,0.5,3,0.6,5.2,0.6c1.9,0,8.8,0,11-0.1c-0.4,0.8-0.9,2-1.1,3h-9.9c-4.7,0-7.7-0.6-9.8-3.4
		c-0.3,1.5-0.6,2.9-1.1,4.1c-0.5-0.4-1.8-1-2.4-1.3c1.3-2.5,1.5-6.6,1.5-10.9l2.7,0.1c0,1.1,0,2.3-0.1,3.4c0.4,1.1,0.9,2,1.4,2.7
		v-7.6h-4.8v-2.7H40v-2.3h-3.7v-2.7H40v-2.5h2.8v2.5h3.6v2.7h-3.6v2.3h4.1v0.6c1.7-1,2.5-2.7,3-4.7h-2.7v-2.5h11.2v1
		c-0.1,4.2-0.4,6.1-1,6.7c-0.5,0.5-1,0.8-1.7,0.9c-0.6,0.1-1.7,0.1-2.8,0c0-0.8-0.4-1.9-0.8-2.5c0.9,0.1,1.7,0.1,2,0.1
		c0.3,0,0.5,0,0.8-0.3c0.3-0.4,0.4-1.3,0.5-3.6h-2.7c-0.6,3.2-1.9,5.5-4.3,6.9c-0.4-0.4-1-0.9-1.5-1.3v1.1h-3.7v2.8h3.2v2.7h-3.3
		V188.7L43.2,188.7z M47.8,179.8h9.9v8h-9.9V179.8z M50.7,185.4h4.1v-3.2h-4.1V185.4z M71.3,185l0.1,7.9h-2.7v-0.6h-3.3v0.6h-2.5
		v-7.4c-0.3,0.1-0.6,0.3-0.9,0.4c-0.3-0.6-1-1.9-1.4-2.4c1.5-0.5,3-1.1,4.4-1.9c-0.5-0.3-0.9-0.5-1.3-0.8l1.7-1.8l1.7,0.9
		c0.5-0.5,1-1,1.4-1.7h-3c-0.8,1-1.7,2-2.8,2.8c-0.3-0.6-1-1.7-1.5-2c1.9-1.3,3.2-3,3.7-4.7l2.3,0.5l-0.4,1.1h3.2l0.4-0.1V174h-6.9
		v2.2h-2.2v-4.6h4.4c-0.1-0.5-0.4-1.1-0.5-1.7l2.4-0.9c0.3,0.8,0.6,1.7,1,2.4h4.1v4.6h-2l1.1,0.8c-0.6,1.7-1.5,2.9-2.5,4.2
		c1.4,0.8,2.7,1.7,3.6,2.2L71.3,185L71.3,185z M70.4,185c-0.9-0.6-1.9-1.3-3.2-2c-1,0.8-2,1.5-3.2,2H70.4z M68.7,189.9v-2.5h-3.3
		v2.5H68.7z M80.7,187.8c1.4,0.8,3.2,2,4.2,2.9l-1.8,2c-0.9-0.9-2.8-2.4-4.2-3.3l1.5-1.7h-3.8l1.8,1.9c-1.5,1.1-3.7,2.4-5.5,3.3
		c-0.3-0.6-0.8-1.7-1.3-2.2c1.5-0.8,3.6-1.9,4.8-2.9h-2.8v-13.3h3.2c0.1-0.5,0.3-1.1,0.3-1.8h-4.2v-2.5h11.3v2.5h-4.4
		c-0.1,0.6-0.4,1.3-0.5,1.8h4.3V188h-2.9C80.7,188,80.7,187.8,80.7,187.8z M76.4,178.2h4.6v-1.5h-4.6V178.2z M76.4,181.9h4.6v-1.5
		h-4.6V181.9z M76.4,185.6h4.6V184h-4.6V185.6z M93.5,175.7h4.1v2.5H95l1.5,0.4c-0.4,0.9-0.9,1.8-1.3,2.5h1.8v2.5h-3.6v2h4.1v2.5
		h-4.1v4.6h-2.8v-4.6h-4.4v-2.5h4.4v-2h-3.8v-2.5h1.8c-0.1-0.8-0.5-1.8-0.9-2.5l1.4-0.4h-2.9v-2.5h4.3v-1.8h-3.7v-2.5h3.7v-2.2h2.9
		v2.2h3.4v2.5h-3.4V175.7z M92.9,181.1c0.5-0.9,0.9-2,1.3-2.9h-3.9c0.4,0.9,0.9,1.9,1,2.5l-1.1,0.4H92.9z M109.4,179.5
		c-0.5,3-1.4,5.7-2.7,8.1c1,1.1,2.2,2,3.4,2.7c-0.6,0.5-1.5,1.7-2,2.4c-1.1-0.6-2.2-1.5-3.2-2.7c-0.9,1.1-1.8,2-2.9,2.9
		c-0.3-0.4-0.8-0.9-1.1-1.4v1.3h-2.8v-22.6h10.5v4.8c0,1.3-0.3,2-1.3,2.4c-1,0.4-2.3,0.4-4.2,0.4c-0.1-0.8-0.5-1.9-0.9-2.5h3
		c0.4,0,0.5-0.1,0.5-0.4v-2h-4.7v6.1h6.1l0.5-0.1L109.4,179.5L109.4,179.5z M101.1,190.3c0.9-0.8,1.7-1.7,2.4-2.5
		c-1-1.5-1.8-3.3-2.4-5.2V190.3z M103.2,181.4c0.5,1.3,1,2.7,1.8,3.8c0.5-1.1,1-2.4,1.3-3.8H103.2z M134.5,169.8v23.1H132v-10.2
		l-0.8,0.4c-0.1-0.9-0.5-2-1-3.2v12.2h-2.3v-9.4l-0.9,0.5c-0.1-0.9-0.4-2.2-0.8-3.3c0,4.7-0.3,9.4-2.4,13.1
		c-0.5-0.5-1.5-1.3-2.2-1.5c1.4-2.5,1.9-5.5,2.2-8.6l-1.3,0.6c-0.1-1.4-0.6-3.6-1.3-5.2v14.2h-2.2v-1.1h-5.1v1.5h-2v-17.7h2.3v-2.4
		h-2.7v-2.7h9.9v2.4h-2.7v2.4h2.4v2.9l1.7-0.8c0.3,0.9,0.6,1.9,0.9,2.9v-10.2h2.4v7.6l0.9-0.5c0.3,0.8,0.6,1.7,0.9,2.5v-9.4h2.3v6.9
		l0.6-0.4c0.4,0.8,0.8,1.7,1.1,2.5v-9.5L134.5,169.8z M119.2,188.9v-6.1h-0.8c-1.1,0-1.4-0.4-1.4-1.8v-3.6h-0.8v2.2
		c0,1.4-0.3,3.2-1.3,4.4c-0.1-0.3-0.5-0.5-0.8-0.8v5.5h5C119.2,188.7,119.2,188.9,119.2,188.9z M114.2,177.4v5.5
		c0.8-1,0.8-2.3,0.8-3.3v-2.2H114.2z M115,184.9h3.4v2.2H115V184.9z M116.2,175h0.8v-2.4h-0.8V175z M119.2,177.4h-0.8v3.6
		c0,0.4,0,0.4,0.3,0.4h0.6L119.2,177.4z M140.7,181.2c-0.8-0.8-2.5-2-3.8-2.9l1.9-2c1.3,0.8,3,1.9,3.8,2.7L140.7,181.2z M137.4,191
		c0.9-2,2.3-5.2,3.3-8.1l2.4,1.5c-0.9,2.7-2,5.7-3,8.1L137.4,191z M141.3,174.5c-0.8-0.9-2.4-2.2-3.7-3l1.9-1.9
		c1.1,0.8,2.9,2,3.7,2.8L141.3,174.5z M158.6,179.7c0.3,0,0.4-0.1,0.4-1.7c0.4,0.3,1.3,0.6,1.8,0.8c-0.3,2.3-0.8,2.8-1.9,2.8h-1
		c-1.5,0-1.9-0.5-1.9-2.3c-0.8,1-1.8,2-3,2.9c-0.4-0.5-1-1.1-1.5-1.5c-2,0.9-2.5,1.3-2.8,1.5c-0.3-0.4-0.8-1.1-1.1-1.5
		c0.4-0.3,1-1.1,1-2.3v-0.9c-0.8,1.7-2,3.2-4.2,4.6c-0.4-0.5-1-1.3-1.7-1.7c1.9-1,3-2.3,3.7-3.4h-2.8c0.3-1.3,0.4-3.2,0.5-4.8h-0.6
		v-2h7.9v2h-1.8v0.8c0,0.5,0,1.1-0.1,1.8h2.3v2.3h-1.3v1.9l1.4-0.5c0.1,0.5,0.4,1.1,0.6,1.7c1.3-0.9,2-1.9,2.5-2.9h-2.8
		c0.3-1.3,0.4-3.3,0.5-5h-0.8v-2h8.3v2h-2v1.1c0,0.5,0,0.9-0.1,1.5h2.4v2.3h-3c-0.1,0.3-0.1,0.4-0.3,0.6h1v1.5c0,0.5,0,0.5,0.3,0.5
		h0.3L158.6,179.7L158.6,179.7z M144.7,182.4h14.1v10.4h-2.9v-1h-8.4v1h-2.8V182.4z M147.1,174.6c0.1-0.6,0.1-1.3,0.1-1.8v-0.8h-1
		c-0.1,0.8-0.1,1.7-0.3,2.5H147.1z M147.5,184.7v1.4h8.4v-1.4H147.5z M155.9,189.5V188h-8.4v1.5H155.9z M155.6,174.8
		c0.1-0.5,0.1-1,0.1-1.5v-1.1h-1c-0.1,0.9-0.3,1.8-0.3,2.5L155.6,174.8L155.6,174.8z M184.8,174.4c0,0,0,1-0.1,1.4
		c-0.5,10.2-1,14-2.2,15.2c-0.8,1-1.5,1.3-2.5,1.4c-0.9,0.1-2.5,0.1-4.1,0c0-0.9-0.5-2.3-1-3.2c1.7,0.1,3,0.1,3.8,0.1
		c0.5,0,0.9-0.1,1.1-0.4c0.8-0.8,1.3-4.1,1.7-11.7h-7.1c-0.4,5.2-2.2,11.4-9.3,15.5c-0.5-0.8-1.7-1.9-2.4-2.4c6.3-3.4,8-8.5,8.4-13
		h-7.6v-3h7.7v-5.2h3.2v5.2L184.8,174.4L184.8,174.4z"/>
</g>
</svg>
