<?xml version="1.0" encoding="utf-8"?>
<!-- Generator: Adobe Illustrator 23.0.4, SVG Export Plug-In . SVG Version: 6.00 Build 0)  -->
<svg version="1.1" id="圖層_1" xmlns="http://www.w3.org/2000/svg" xmlns:xlink="http://www.w3.org/1999/xlink" x="0px" y="0px"
	 viewBox="0 0 220 200" style="enable-background:new 0 0 220 200;" xml:space="preserve">
<style type="text/css">
	.st0{fill:#003781;}
	.st1{enable-background:new    ;}
	.st2{fill:#3C3C3C;}
</style>
<title>3A infographic_</title>
<path class="st0" d="M185.5,24c-22.4-22.4-58.6-22.3-81,0c-18.1,18.2-21.9,46.1-9.4,68.5c4.7,8.3,11.4,15.3,19.4,20.4
	c0.6,0.4,1.4,0.6,2.1,0.6c0.3,0,0.6,0,0.9-0.1c1.9,0.4,3.9-0.6,4.6-2.4l5.2-13.3h22.3l2.2,5.6c0.1,0.5,0.3,1,0.6,1.5l2.4,6.2
	c0.6,1.5,2.1,2.5,3.7,2.6c0.5,0,1-0.1,1.4-0.3c2-0.8,3-3.1,2.3-5.1l-2.2-5.5l9-23.1l11.2,28.9c0.6,1.5,2.1,2.5,3.7,2.5
	c0.5,0,1-0.1,1.4-0.3c2-0.8,3.1-3.1,2.3-5.1l-14.8-38.4c-0.6-1.5-2.1-2.5-3.7-2.5s-3.1,1-3.7,2.5l-9.6,24.3l-13.7-35.1
	c-0.1-0.3-0.3-0.7-0.5-0.9c-0.6-1-1.7-1.6-2.9-1.6h-7.8c-1.9,0-3.5,1.6-3.5,3.5s1.6,3.5,3.5,3.5h2.1l-16.9,43.5
	c-12.8-9.3-20.4-24.1-20.4-39.9c-0.3-27.3,21.4-49.6,48.6-50s49.6,21.4,50,48.6v1.4c0,2.2,1.8,4,4,4s4-1.8,4-4
	C202.2,49.2,196.2,34.7,185.5,24L185.5,24z M130.4,89.7l8.1-20.8l8.1,20.8H130.4L130.4,89.7z"/>
<path class="st0" d="M124.9,38.2c0,7.3,5.9,13.1,13.1,13.1s13.1-5.9,13.1-13.1s-5.9-13.1-13.1-13.1C130.7,25,124.9,30.9,124.9,38.2z
	 M145.2,38.2c0,4-3.2,7.2-7.2,7.2s-7.2-3.2-7.2-7.2S134,31,138,31S145.2,34.2,145.2,38.2z M169,39.9c-6,0-11,4.9-11,10.9
	s4.9,11,10.9,11s11-4.9,11-10.9S175.1,40,169,39.9z M169,55.9c-2.8,0-5-2.2-5-5s2.2-5,5-5s5,2.2,5,5S171.8,55.9,169,55.9z"/>
<g class="st1">
	<path class="st0" d="M94.2,151.7h-9.6l-2.1,7.6h-6l9.5-29.6h7l9.5,29.6h-6.2C96.3,159.3,94.2,151.7,94.2,151.7z M92.9,147.1
		l-0.9-3.2c-0.9-3.1-1.7-6.5-2.6-9.7h-0.2c-0.8,3.2-1.6,6.6-2.5,9.7l-0.9,3.2H92.9z M113.6,144.6c0-9.8,6.3-15.5,13.8-15.5
		c3.8,0,6.8,1.8,8.7,3.8l-3.1,3.8c-1.5-1.4-3.2-2.5-5.4-2.5c-4.5,0-7.8,3.8-7.8,10.2s3,10.3,7.7,10.3c2.5,0,4.5-1.2,6.1-2.9l3.1,3.7
		c-2.4,2.8-5.6,4.4-9.4,4.4C119.6,159.8,113.6,154.5,113.6,144.6z M140.8,153v-25.6h5.8v25.9c0,1.3,0.6,1.8,1.2,1.8
		c0.2,0,0.4,0,0.8-0.1l0.7,4.4c-0.7,0.3-1.7,0.5-3,0.5C142.2,159.8,140.8,157.2,140.8,153L140.8,153z M152.2,153.2
		c0-4.8,3.9-7.3,12.9-8.3c-0.1-2.2-1-3.9-3.8-3.9c-2.1,0-4.1,0.9-6.2,2.1l-2.1-3.9c2.6-1.6,5.8-3,9.4-3c5.7,0,8.6,3.4,8.6,9.9v13.1
		h-4.8l-0.4-2.4h-0.1c-2,1.7-4.2,3-6.8,3C155,159.8,152.2,157,152.2,153.2L152.2,153.2z M165.2,153v-4.5c-5.4,0.7-7.3,2.2-7.3,4.2
		c0,1.8,1.2,2.5,3,2.5C162.6,155.2,163.8,154.4,165.2,153z M175,156.7l2.7-3.7c2,1.6,3.9,2.4,6,2.4c2.2,0,3.2-1,3.2-2.4
		c0-1.7-2.3-2.4-4.7-3.4c-2.8-1.1-6.1-2.8-6.1-6.5c0-4,3.3-6.9,8.3-6.9c3.3,0,5.8,1.4,7.6,2.8l-2.6,3.6c-1.6-1.1-3.2-1.9-4.8-1.9
		c-2,0-3,0.9-3,2.2c0,1.6,2.2,2.2,4.6,3.1c3,1.1,6.2,2.6,6.2,6.8c0,3.9-3.1,7.1-8.9,7.1C180.5,159.8,177.2,158.5,175,156.7
		L175,156.7z M194.8,156.7l2.7-3.7c2,1.6,3.9,2.4,6,2.4c2.2,0,3.2-1,3.2-2.4c0-1.7-2.3-2.4-4.7-3.4c-2.8-1.1-6.1-2.8-6.1-6.5
		c0-4,3.3-6.9,8.3-6.9c3.3,0,5.8,1.4,7.6,2.8l-2.6,3.6c-1.6-1.1-3.2-1.9-4.8-1.9c-2,0-3,0.9-3,2.2c0,1.6,2.2,2.2,4.6,3.1
		c3,1.1,6.2,2.6,6.2,6.8c0,3.9-3.1,7.1-8.9,7.1C200.2,159.8,196.9,158.5,194.8,156.7L194.8,156.7z"/>
</g>
<g class="st1">
	<path class="st2" d="M91.2,188.5c1.6-0.1,3.3-0.4,4.8-0.5v2.6c-4.3,0.5-9,1-12.3,1.4l-0.4-2.8c1.4-0.1,3.1-0.3,5-0.5v-1.9h-3.8
		v-2.4h3.8v-1.6h-4.3v-2.5h2.8c-0.4-0.8-1-1.6-1.6-2.4l1.3-0.8h-3.1v-2.5h3.4v-1.1l-1.3,0.9c-0.4-0.9-1.3-2.1-2-3l1.8-1.1
		c0.5,0.5,1.1,1.3,1.5,1.9v-2.6h2.4v5.3h1.1v-5.3h2.4v2.9c0.5-0.6,1-1.4,1.4-2l2.4,1.3c-1,1.1-2,2.1-2.9,2.9l-0.9-0.5v0.8h3.3v2.5
		h-3.3l1.8,0.6c-0.4,0.9-0.9,1.8-1.4,2.5h2.3v2.4h-4v1.6H95v2.4h-3.8V188.5L91.2,188.5z M87.7,177.3c0.6,0.8,1.3,1.6,1.5,2.3
		l-1.5,0.9h2.6c0.5-0.9,1-2.1,1.4-3.1H87.7z M106.3,178.6h-1.9v10.9c0,1.5-0.3,2.3-1.3,2.8c-0.9,0.5-2.3,0.6-4.1,0.6
		c-0.1-0.8-0.6-2-1-2.9h2.9c0.4,0,0.6-0.1,0.6-0.5v-10.9h-5.4v-2.8h5.4v-6.3h2.9v6.3h1.9C106.3,175.8,106.3,178.6,106.3,178.6z
		 M98.1,186.5c-0.1-1.5-0.9-3.9-1.8-5.7l2.5-0.9c0.9,1.8,1.8,4,2,5.5L98.1,186.5z M117.4,182.8c-1,0.3-1.9,0.5-2.9,0.8v5.9
		c0,1.5-0.3,2.1-1.1,2.6c-0.9,0.5-2,0.5-3.8,0.5c-0.1-0.8-0.5-2-0.9-2.8h2.4c0.4,0,0.5-0.1,0.5-0.5v-5.2l-2.9,0.8l-0.6-2.9
		c1-0.1,2.3-0.5,3.5-0.8v-4.5h-3v-2.8h3v-4.8h2.9v4.8h2.6v2.8h-2.6v3.8l2.5-0.6C117,180,117.4,182.8,117.4,182.8z M129.3,190.1
		c0.1,0,0.3,0,0.4-0.1c0.1-0.1,0.1-0.4,0.1-0.9c0-0.5,0-1.5,0.1-2.9c0.5,0.5,1.4,1,2.1,1.1c0,1.4-0.1,2.9-0.3,3.5s-0.5,1-0.9,1.4
		c-0.4,0.3-1,0.4-1.5,0.4H128c-0.6,0-1.3-0.3-1.8-0.6c-0.5-0.5-0.6-1-0.6-2.9v-8h-3.4v1.8c0,3.3-0.9,7.7-4.9,10.2
		c-0.4-0.6-1.5-1.9-2-2.3c3.6-2.1,4-5.4,4-7.9v-4.5h9.4V189c0,0.5,0,0.9,0.1,1C129,190.1,129,190.1,129.3,190.1L129.3,190.1z
		 M131.9,176.3h-14.3v-2.9h5.3c-0.3-1-0.9-2.5-1.4-3.5l2.9-0.8c0.6,1.1,1.1,2.6,1.5,3.6l-2.4,0.8h8.3v2.8L131.9,176.3L131.9,176.3z
		 M137.8,181.2c-1-0.8-3-1.9-4.5-2.6l1.6-2.3c1.4,0.6,3.5,1.6,4.5,2.4L137.8,181.2L137.8,181.2z M140.2,184.6
		c-1.1,2.6-2.5,5.5-3.8,8l-2.6-1.8c1.3-1.9,2.9-5.2,4.1-8L140.2,184.6z M139.1,174.6c-1-0.8-3-2-4.4-2.8l1.6-2.1
		c1.4,0.8,3.4,1.8,4.5,2.5L139.1,174.6L139.1,174.6z M155.3,179.7c-0.8,3.3-2.1,5.9-3.8,8c1.5,1.1,3.4,2,5.4,2.6
		c-0.6,0.6-1.5,1.8-1.9,2.5c-2.1-0.8-3.9-1.8-5.5-3c-1.5,1.4-3.3,2.4-5.3,3.1c-0.4-0.6-1.3-1.9-1.9-2.4c-0.4,0.9-0.8,1.6-1.3,2.4
		c-0.5-0.5-1.8-1.3-2.5-1.5c2.5-3.5,2.8-8.5,2.8-12.2v-6.5h5.8v-3.3h3v3.3h4.1l0.5-0.1l2.1,0.5c-0.5,1.9-1.3,4-2,5.4l-2.6-0.8
		c0.3-0.6,0.6-1.4,0.9-2.3h-3v3.5h2.9l0.5-0.1L155.3,179.7z M147.5,187.7c-1.4-1.6-2.4-3.5-3.3-5.7c-0.1,2.8-0.6,5.7-1.6,8.3
		C144.4,189.9,146,188.9,147.5,187.7L147.5,187.7z M144.1,175.6v3.5h2.9v-3.5H144.1z M146.9,181.6c0.6,1.5,1.5,2.9,2.6,4.1
		c1-1.1,1.8-2.5,2.3-4.1H146.9L146.9,181.6z M181.4,175.1v1.4c-0.3,10.3-0.4,13.9-1.3,15.1c-0.6,0.9-1.1,1.1-2,1.3
		c-0.8,0.1-1.9,0.1-3.1,0.1c0-0.9-0.4-2-0.9-2.9c1.1,0.1,2,0.1,2.5,0.1c0.4,0,0.6-0.1,0.9-0.4c0.5-0.6,0.8-3.8,0.9-11.8h-2.3
		c-0.4,6.8-1.5,11.9-5.7,15.2c-0.4-0.6-1.1-1.4-1.8-2c-3.6,0.4-7.3,0.8-9.9,1l-0.4-2.5c1.4-0.1,3.1-0.3,5.2-0.4v-1.5h-4.4v-2.1h4.4
		v-1h-4.3v-7.8h4.3v-1h-4.9v-2.1h4.9v-1c-1.5,0.1-2.9,0.1-4.3,0.3c-0.1-0.6-0.4-1.5-0.6-2.1c3.8-0.3,8-0.6,10.8-1.3l1.3,2.3
		c-1.4,0.3-2.9,0.5-4.5,0.6v1.3h4.8v1.4h2.4v-5.3h2.9v5.3L181.4,175.1L181.4,175.1z M161.7,179.8h2v-1.1h-2V179.8z M163.6,182.7
		v-1.1h-2v1.1H163.6z M166.4,189c1.4-0.1,2.9-0.3,4.4-0.4c2-2.8,2.5-6.3,2.8-10.8h-2.3v-2h-4.8v1h4.4v7.8h-4.4v1h4.5v2.1h-4.5
		L166.4,189L166.4,189z M168.4,179.8v-1.1h-2v1.1H168.4z M166.4,181.6v1.1h2v-1.1H166.4z M205.7,174.7c0,0,0,1-0.1,1.4
		c-0.5,10.1-1,13.8-2.1,15.1c-0.8,1-1.5,1.3-2.5,1.4c-0.9,0.1-2.5,0.1-4,0c0-0.9-0.5-2.3-1-3.1c1.6,0.1,3,0.1,3.8,0.1
		c0.5,0,0.9-0.1,1.1-0.4c0.8-0.8,1.3-4,1.6-11.6h-7c-0.4,5.2-2.1,11.3-9.2,15.3c-0.5-0.8-1.6-1.9-2.4-2.4c6.3-3.4,7.9-8.4,8.3-12.8
		h-7.5v-3h7.7v-5.2h3.1v5.2L205.7,174.7L205.7,174.7z"/>
</g>
</svg>
