<?xml version="1.0" encoding="utf-8"?>
<!-- Generator: Adobe Illustrator 23.0.4, SVG Export Plug-In . SVG Version: 6.00 Build 0)  -->
<svg version="1.1" id="圖層_1" xmlns="http://www.w3.org/2000/svg" xmlns:xlink="http://www.w3.org/1999/xlink" x="0px" y="0px"
	 viewBox="0 0 220 200" style="enable-background:new 0 0 220 200;" xml:space="preserve">
<style type="text/css">
	.st0{enable-background:new    ;}
	.st1{fill:#003781;}
	.st2{fill:#3C3C3C;}
</style>
<g class="st0">
	<path class="st1" d="M28.6,151.7H19l-2.1,7.6h-6l9.5-29.6h7l9.5,29.6h-6.2L28.6,151.7z M27.3,147.1l-0.9-3.2
		c-0.9-3.1-1.7-6.5-2.6-9.7h-0.2c-0.8,3.2-1.6,6.6-2.5,9.7l-0.9,3.2H27.3z M39.8,153v-25.6h5.8v25.9c0,1.3,0.6,1.8,1.2,1.8
		c0.2,0,0.4,0,0.8-0.1l0.7,4.4c-0.7,0.3-1.7,0.5-3,0.5C41.3,159.9,39.8,157.2,39.8,153L39.8,153z M52.4,153v-25.6h5.8v25.9
		c0,1.3,0.6,1.8,1.2,1.8c0.2,0,0.4,0,0.8-0.1l0.7,4.4c-0.7,0.3-1.7,0.5-3,0.5C53.9,159.9,52.4,157.2,52.4,153L52.4,153z M63.6,148.2
		c0-7.5,5.2-11.8,10.8-11.8s10.8,4.3,10.8,11.8c0,7.4-5.2,11.7-10.8,11.7S63.6,155.5,63.6,148.2z M79.2,148.2c0-4.2-1.7-7-4.8-7
		s-4.8,2.8-4.8,7s1.7,6.9,4.8,6.9S79.2,152.4,79.2,148.2z M88.7,148.2c0-7.5,5.4-11.8,11.4-11.8c2.8,0,4.9,1.1,6.5,2.5l-2.8,3.8
		c-1.1-1-2.2-1.5-3.4-1.5c-3.4,0-5.7,2.8-5.7,7s2.3,6.9,5.6,6.9c1.6,0,3.1-0.8,4.4-1.8l2.3,3.9c-2.1,1.9-4.8,2.7-7.3,2.7
		C93.4,159.9,88.7,155.5,88.7,148.2L88.7,148.2z M109.6,153.2c0-4.8,3.9-7.3,12.9-8.3c-0.1-2.2-1-3.9-3.8-3.9
		c-2.1,0-4.1,0.9-6.2,2.1l-2.1-3.9c2.6-1.6,5.8-3,9.4-3c5.7,0,8.6,3.4,8.6,9.9v13.1h-4.9l-0.4-2.4H123c-2,1.7-4.2,3-6.8,3
		C112.2,159.9,109.6,157,109.6,153.2L109.6,153.2z M122.4,153.1v-4.5c-5.4,0.7-7.3,2.2-7.3,4.2c0,1.8,1.2,2.5,3,2.5
		C119.8,155.3,121,154.5,122.4,153.1z M134.4,151.5v-9.9h-3.2v-4.4l3.4-0.3l0.7-6h4.9v6h5.5v4.6h-5.5v9.9c0,2.6,1,3.8,3,3.8
		c0.7,0,1.6-0.2,2.2-0.5l1,4.3c-1.2,0.4-2.8,0.8-4.7,0.8C136.4,159.9,134.4,156.5,134.4,151.5L134.4,151.5z M149.8,130.1
		c0-1.9,1.5-3.2,3.5-3.2s3.5,1.3,3.5,3.2c0,1.8-1.5,3.2-3.5,3.2S149.8,132,149.8,130.1z M150.4,136.9h5.8v22.4h-5.8V136.9z
		 M161.1,148.2c0-7.5,5.2-11.8,10.8-11.8s10.8,4.3,10.8,11.8c0,7.4-5.2,11.7-10.8,11.7S161.1,155.5,161.1,148.2z M176.6,148.2
		c0-4.2-1.7-7-4.8-7c-3,0-4.8,2.8-4.8,7s1.7,6.9,4.8,6.9S176.6,152.4,176.6,148.2z M187.6,136.9h4.8l0.4,3h0.2
		c2-1.9,4.2-3.5,7.3-3.5c4.8,0,6.9,3.4,6.9,9v14h-5.9v-13.2c0-3.4-1-4.7-3.2-4.7c-1.8,0-3,0.9-4.7,2.5v15.4h-5.8V136.9z"/>
</g>
<g class="st0">
	<path class="st2" d="M35.6,170.3h12.1v2.5h-3.2v2.5h3v17.3h-2.4v-1.3h-6.9v1.7h-2.3v-17.7h2.8v-2.5h-3.2V170.3L35.6,170.3z
		 M45,189.1v-5.7h-1c-1.3,0-1.7-0.4-1.7-2.2v-3.4h-1.1v1.9c0,1.5-0.3,3.3-1.7,4.6c-0.3-0.3-0.9-0.9-1.3-1v5.8L45,189.1L45,189.1z
		 M38.1,177.8v5.2c1.1-1,1.3-2.3,1.3-3.4v-1.8L38.1,177.8L38.1,177.8z M38.9,185.1h5.3v2.3h-5.3V185.1z M42,172.8h-1v2.5h1V172.8z
		 M45,177.8h-1.1v3.3c0,0.4,0,0.4,0.3,0.4H45V177.8L45,177.8z M55.1,189.9c0.9,0,1-0.6,1.1-3.9c0.6,0.5,1.9,1,2.7,1.1
		c-0.3,4.3-1.1,5.6-3.6,5.6h-3.3c-2.8,0-3.6-0.9-3.6-3.9v-10.3h6.7v-5.1h-6.9v-2.9H58v10.9h-6.6v7.4c0,1,0.1,1.1,1,1.1L55.1,189.9
		L55.1,189.9z M83.9,190.2v2.2H61.1v-2.2H64v-10.3h6.2c0-0.3,0.1-0.6,0.1-1h-9v-2.2h9.3c0-0.4,0.1-0.8,0.1-1h-8.3v-5.5h20.1v5.5
		h-8.8c0,0.4-0.1,0.6-0.1,1h9.4v2.2h-9.8l-0.1,1h7.6v10.3C80.8,190.2,83.9,190.2,83.9,190.2z M68.2,172.3h-2.8v1.5h2.8V172.3z
		 M66.9,181.8v0.9h10.9v-0.9H66.9z M77.8,184.2H66.9v1h10.9V184.2z M66.9,187.8h10.9v-1H66.9V187.8z M66.9,190.2h10.9v-0.9H66.9
		V190.2z M71,173.7h2.8v-1.5h-2.9v1.5C70.9,173.7,71,173.7,71,173.7z M76.6,173.7h2.9v-1.5h-2.9V173.7z M95,182.1c0,0,0,0.8-0.1,1.1
		c-0.3,5.5-0.6,7.7-1.4,8.6c-0.5,0.6-1.1,0.9-1.9,1c-0.8,0.1-1.9,0.1-3,0c0-0.9-0.4-2-0.9-2.8c1,0.1,2,0.1,2.5,0.1
		c0.4,0,0.6,0,0.9-0.3c0.4-0.4,0.6-1.9,0.9-5.2h-5.8c0.4-2.2,0.8-5.6,1-8.4h4.8v-3h-5.3v-2.8h8.1v8.5h-5.2c-0.1,1-0.3,2-0.3,2.9
		C89.3,181.9,95,182.1,95,182.1z M107.3,193.3c-0.1-0.4-0.3-0.9-0.5-1.5c-4.2,0.4-8.4,0.6-11.6,0.9l-0.4-2.9c1.7,0,3.6-0.1,5.7-0.3
		v-2.9h-4.8v-7.2h4.8v-2h2.8v2h5v7.2h-1.3c1.1,1.8,2.4,4.1,2.8,5.6L107.3,193.3L107.3,193.3z M107.3,178.1c-0.3-0.5-0.5-1-0.9-1.5
		c-8.1,0.6-9.4,0.8-10.2,1.1c-0.1-0.5-0.6-1.9-1-2.5c0.5-0.1,0.9-0.5,1.4-1c0.5-0.5,1.9-2.7,2.8-4.7l3.2,0.8c-0.9,1.7-2,3.3-3.3,4.6
		l5.5-0.4c-0.5-0.6-1-1.3-1.5-1.8l2.2-1.3c1.7,1.7,3.4,3.8,4.2,5.5L107.3,178.1L107.3,178.1z M100.7,184v-2.4h-2.2v2.4H100.7z
		 M103.5,181.7v2.4h2.3v-2.4H103.5z M105.5,189.1c-0.3-0.5-0.6-1.1-0.9-1.7l2.3-1h-3.4v2.7C103.5,189.1,105.5,189.1,105.5,189.1z
		 M133.6,176.9c-0.6,3.8-1.7,7-3.2,9.5c1.4,1.7,2.9,3,4.8,4.1c-0.6,0.5-1.7,1.7-2,2.5c-1.8-1-3.3-2.4-4.6-3.9c-1.4,1.7-3,3-5.1,4.2
		c-0.4-0.6-1.4-1.9-1.9-2.4c2.2-1,3.9-2.4,5.3-4.3c-1-1.7-1.8-3.6-2.4-5.6c-0.4,0.6-0.9,1.3-1.3,1.8c-0.4-0.6-1.1-1.7-1.8-2.4V193
		h-3v-6.6c-4.1,1.4-4.8,1.9-5.5,2.3c-0.3-0.8-0.8-2.2-1.1-2.8c0.5-0.3,0.9-0.8,0.9-1.8v-12.2h2.9v12.4l2.7-0.8v-14h3v10
		c2-2.4,3.2-6.3,3.8-10.4l3,0.5c-0.3,1.4-0.5,2.8-0.9,4.2h7.7v2.9L133.6,176.9L133.6,176.9z M126.5,176.9c-0.1,0.3-0.1,0.5-0.3,0.6
		c0.6,2.2,1.4,4.3,2.4,6.1c0.9-1.9,1.5-4.2,2-6.7C130.7,176.9,126.5,176.9,126.5,176.9z M160.3,189.6v2.7h-23.1v-2.7h2.9v-7.1
		c-0.4,0.1-0.6,0.3-1,0.5c-0.4-0.8-1.1-1.9-1.8-2.5c2.4-0.8,5.7-2.2,7.4-3.4l2.2,1.5c-1.7,1.1-4.2,2.7-6.3,3.7h17v7.4L160.3,189.6
		L160.3,189.6z M159.9,176.7h-22.5v-2.7h6c-0.5-1.1-1.4-2.5-2.3-3.7l2.5-1.1c1,1.3,2.2,2.9,2.7,4.1l-1.4,0.8h7.4l-1.4-0.5
		c0.8-1.1,1.8-2.9,2.3-4.3l3,0.9c-0.9,1.4-1.8,2.8-2.5,3.8h6.1v2.8L159.9,176.7L159.9,176.7z M142.6,189.6h2.2v-4.8h-2.2V189.6
		L142.6,189.6z M147.6,184.7v4.8h2.2v-4.8L147.6,184.7L147.6,184.7z M152.3,177c2.4,0.9,6.1,2.3,7.9,3.2l-1.7,2.4
		c-1.8-1-5.3-2.5-7.7-3.4L152.3,177L152.3,177z M152.4,184.7v4.8h2.2v-4.8L152.4,184.7L152.4,184.7z M184.6,174.6c0,0,0,1-0.1,1.4
		c-0.5,10.2-1,14-2.2,15.2c-0.8,1-1.5,1.3-2.5,1.4c-0.9,0.1-2.5,0.1-4.1,0c0-0.9-0.5-2.3-1-3.2c1.7,0.1,3,0.1,3.8,0.1
		c0.5,0,0.9-0.1,1.1-0.4c0.8-0.8,1.3-4.1,1.7-11.7h-7.1c-0.4,5.2-2.2,11.4-9.3,15.5c-0.5-0.8-1.7-1.9-2.4-2.4c6.3-3.4,8-8.5,8.4-13
		h-7.6v-3h7.7v-5.2h3.2v5.2L184.6,174.6L184.6,174.6z"/>
</g>
<path class="st1" d="M109.6,36.6c-0.3-0.7-0.7-1.3-1.3-1.8c-0.6-0.6-1.5-0.9-2.3-0.9h-8c-1.9,0-3.5,1.6-3.5,3.5s1.6,3.5,3.5,3.5h2.5
	L76,104.2c-12.3-9.3-19.5-23.9-19.5-39.3c0-27.3,22.2-49.4,49.5-49.4c9.8,0,19.5,2.9,27.6,8.4c1.7,1.4,4.2,1.1,5.6-0.7
	c1.4-1.7,1.1-4.2-0.7-5.6c-0.2-0.1-0.3-0.2-0.5-0.3C111.6-0.5,75.9,6.5,58.2,32.8c-12.1,18-13.1,41.3-2.4,60.2
	c4.7,8.3,11.4,15.3,19.5,20.4c0.6,0.4,1.4,0.6,2.1,0.6h0.3c1.7,0.1,3.4-0.9,4-2.5l9-23.2h30.5l9,23.2c0.6,1.5,2.1,2.5,3.7,2.6
	c0.5,0,1-0.1,1.4-0.3c2.1-0.8,3.1-3.1,2.3-5.2C137.6,108.6,109.6,36.6,109.6,36.6z M93.7,80.4l12.1-31.3l12.1,31.3H93.7z"/>
<path class="st1" d="M127.4,36.6c-1-2-3.4-2.8-5.4-1.7c-1.7,0.9-2.5,2.8-2,4.6l28,72.1c0.6,1.5,2.1,2.6,3.7,2.6c0.5,0,1-0.1,1.4-0.3
	c2.1-0.8,3.1-3.1,2.3-5.2C155.4,108.7,127.4,36.6,127.4,36.6z M173.1,108.7l-28-72.1c-0.9-2-3.3-2.9-5.3-2c-1.9,0.8-2.8,2.9-2.2,4.9
	l28,72.1c0.6,1.5,2.1,2.6,3.7,2.6c0.5,0,1-0.1,1.4-0.3C172.9,113.1,173.9,110.7,173.1,108.7L173.1,108.7z"/>
</svg>
