<?xml version="1.0" encoding="utf-8"?>
<!-- Generator: Adobe Illustrator 23.0.4, SVG Export Plug-In . SVG Version: 6.00 Build 0)  -->
<svg version="1.1" id="圖層_1" xmlns="http://www.w3.org/2000/svg" xmlns:xlink="http://www.w3.org/1999/xlink" x="0px" y="0px"
	 viewBox="0 0 450 130" style="enable-background:new 0 0 450 130;" xml:space="preserve">
<style type="text/css">
	.st0{fill:#003781;}
	.st1{enable-background:new    ;}
	.st2{fill:#3C3C3C;}
</style>
<title>3A infographic_</title>
<path class="st0" d="M154,27.5c-22.3-22.3-58.6-22.3-80.9,0C55,45.7,51.1,73.8,63.7,96c4.7,8.3,11.3,15.3,19.4,20.4
	c0.6,0.4,1.4,0.6,2.1,0.6h0.3c1.7,0.1,3.4-0.9,4-2.5v-0.2c0.2-0.2,0.4-0.5,0.6-0.8c4.3-7,9.3-13.4,15.1-19.2
	c5-5.1,10.7-9.4,16.9-12.9l2.4-1.2l13.2,34.1c0.6,1.5,2.1,2.5,3.7,2.6c0.5,0,1-0.1,1.4-0.3c2-0.8,3-3.1,2.3-5.1l-13.2-34.1
	c3-0.9,6-1.4,9.1-1.6l0.2,3.1c0.1,2,1.9,3.2,3.3,2.1l4.5-3.8l4.5-3.8c1.2-1.2,1.2-3.1,0-4.3l-0.3-0.3l-5-3.2l-5-3.2
	c-1.4-0.9-3.1,0.5-3,2.5l0.2,3c-3.9,0.2-7.8,0.9-11.5,2l-11.7-30.3c-0.3-0.7-0.7-1.3-1.3-1.7c-0.6-0.6-1.5-0.9-2.3-0.9h-8
	c-1.9,0-3.5,1.6-3.5,3.5s1.6,3.5,3.5,3.5h2.5l-24.5,63c-12.2-9.3-19.4-23.8-19.4-39.2c0.4-27.2,22.8-48.9,50-48.6
	c26.7,0.4,48.2,21.9,48.6,48.6c0,2.2,1.8,4,4,4s4-1.8,4-4C170.9,52.8,164.8,38.2,154,27.5L154,27.5z M121.6,72.9
	c-1.2,0.5-2.3,1.1-3.4,1.7c-6.9,3.8-13.3,8.7-18.8,14.3L99.3,89l14.3-36.8L121.6,72.9z"/>
<g class="st1">
	<path class="st0" d="M226.6,56.2h-14.4l-3.1,11.4h-9l14.2-44.4h10.4L239,67.6h-9.3L226.6,56.2L226.6,56.2z M224.7,49.2l-1.3-4.9
		c-1.4-4.6-2.6-9.7-3.9-14.5h-0.2c-1.1,4.9-2.5,9.9-3.8,14.5l-1.3,4.9H224.7z M243.5,58.2V19.6h8.8v38.9c0,2,1,2.6,1.8,2.6
		c0.4,0,0.6,0,1.2-0.1l1.1,6.5c-1,0.4-2.5,0.8-4.6,0.8C245.7,68.3,243.5,64.3,243.5,58.2z M262.4,33.9h7.2l0.6,3.5h0.2
		c2.8-2.4,6.3-4.3,9.9-4.3c8.3,0,13.2,6.8,13.2,17.1c0,11.5-6.9,18.2-14.3,18.2c-2.9,0-5.8-1.3-8.3-3.7l0.2,5.5v10.2h-8.8
		L262.4,33.9L262.4,33.9z M284.5,50.3c0-6.4-2-10-6.7-10c-2.3,0-4.3,1.1-6.7,3.5v14.8c2.2,1.9,4.3,2.5,6.1,2.5
		C281.4,61.2,284.5,57.7,284.5,50.3L284.5,50.3z M301.1,19.6h8.8v12.1l-0.4,6.3c2.7-2.5,6-4.9,10.6-4.9c7.3,0,10.4,5,10.4,13.5v20.9
		h-8.9V47.7c0-5.2-1.4-7-4.7-7c-2.8,0-4.5,1.3-7,3.8v23.1h-8.8C301.1,67.6,301.1,19.6,301.1,19.6z M337.8,58.4
		c0-7.2,5.8-11,19.3-12.4c-0.1-3.3-1.6-5.8-5.7-5.8c-3.1,0-6.1,1.4-9.2,3.2l-3.2-5.8c4-2.5,8.8-4.4,14-4.4c8.5,0,12.9,5.1,12.9,14.8
		v19.6h-7.2L358,64h-0.2c-2.9,2.5-6.3,4.4-10.1,4.4C341.8,68.3,337.8,64.2,337.8,58.4L337.8,58.4z M357.1,58.2v-6.8
		c-8.2,1.1-10.9,3.3-10.9,6.3c0,2.6,1.9,3.8,4.4,3.8C353.2,61.4,355,60.2,357.1,58.2z"/>
</g>
<g class="st1">
	<path class="st2" d="M209.2,110.8c1.8,0.6,4.2,0.8,6.9,0.8c2.6,0,11.7,0,14.8-0.1c-0.6,0.9-1.2,2.8-1.5,4h-13.2
		c-6.4,0-10.3-0.9-13-4.7c-0.3,2.2-0.9,4-1.6,5.6c-0.7-0.5-2.4-1.5-3.3-1.8c1.7-3.4,1.9-8.9,2-14.6l3.5,0.2c0,1.6-0.1,3.2-0.1,4.7
		c0.5,1.5,1.1,2.7,1.9,3.6V98.2h-6.4v-3.5h5.8v-3.2h-5V88h5v-3.4h3.7V88h4.9v3.5h-4.9v3.2h5.4v0.9c2.3-1.5,3.5-3.5,4.1-6.4h-3.6
		v-3.4h15v1.4c-0.2,5.7-0.6,8.2-1.4,9.1c-0.6,0.8-1.4,1-2.3,1.1c-0.9,0.1-2.3,0.1-3.7,0.1c0-1-0.5-2.5-1-3.4
		c1.1,0.1,2.3,0.1,2.7,0.1c0.5,0,0.7-0.1,1-0.3c0.3-0.5,0.6-1.7,0.7-4.8h-3.6c-0.8,4.3-2.6,7.3-5.7,9.2c-0.5-0.5-1.4-1.1-2.2-1.7
		v1.6h-4.9v3.7h4.5v3.5h-4.5v5.3C209.4,110.8,209.2,110.8,209.2,110.8z M215.4,98.9h13.3v10.8h-13.3V98.9z M219.2,106.3h5.6v-4.2
		h-5.6V106.3z M246.7,105.8l0.1,10.4h-3.5v-0.9h-4.4v0.9h-3.4v-9.9c-0.5,0.1-0.8,0.3-1.2,0.5c-0.3-0.9-1.2-2.5-1.9-3.2
		c2-0.6,4.1-1.5,5.9-2.6c-0.6-0.3-1.1-0.7-1.8-1l2.3-2.4l2.3,1.2c0.7-0.7,1.4-1.5,1.9-2.3h-4.1c-1,1.5-2.2,2.7-3.7,3.9
		c-0.3-0.9-1.4-2.2-1.9-2.6c2.6-1.7,4.2-4.1,4.9-6.2l3.1,0.6c-0.1,0.6-0.3,1-0.6,1.5h4.3l0.6-0.1v-2.5h-9.2v3h-3v-6.1h6
		c-0.2-0.8-0.6-1.6-0.8-2.2l3.3-1.1c0.5,1,0.9,2.2,1.2,3.3h5.4V94h-2.6l1.5,1c-0.8,2.2-2,4-3.4,5.6c1.8,1,3.6,2.2,4.8,3L246.7,105.8
		z M245.6,105.8c-1.1-0.8-2.6-1.8-4.2-2.7c-1.4,1.1-2.8,2-4.3,2.7H245.6z M243.3,112.5v-3.4h-4.4v3.4H243.3L243.3,112.5z
		 M259.3,109.7c1.8,1.1,4.3,2.8,5.6,4l-2.3,2.7c-1.1-1.2-3.7-3.2-5.7-4.4l2-2.3h-5.1l2.4,2.5c-2,1.6-5,3.3-7.4,4.4
		c-0.3-0.9-1.1-2.2-1.7-3c2-0.9,4.9-2.6,6.5-4H250v-18h4.3l0.3-2.4h-5.6v-3.4h15.2v3.4h-6l-0.7,2.4h5.9v17.9L259.3,109.7
		L259.3,109.7z M253.7,96.7h6.1v-1.9h-6.1L253.7,96.7L253.7,96.7z M253.7,101.7h6.1v-2h-6.1L253.7,101.7L253.7,101.7z M253.7,106.6
		h6.1v-2h-6.1L253.7,106.6L253.7,106.6z M276.6,93.3h5.4v3.4h-3.3l2,0.6c-0.6,1.1-1.2,2.4-1.7,3.4h2.4v3.4h-4.8v2.7h5.4v3.4h-5.4v6
		H273v-6h-5.9v-3.4h5.9v-2.7h-5.1v-3.4h2.4c-0.2-1-0.8-2.3-1.1-3.4l1.9-0.6h-3.7v-3.4h5.9V91H268v-3.3h4.9v-3h3.7v3h4.7V91h-4.7
		L276.6,93.3L276.6,93.3z M275.7,100.6c0.6-1.2,1.2-2.7,1.6-4H272c0.6,1.1,1.1,2.5,1.4,3.4l-1.5,0.5h3.7V100.6z M297.9,98.4
		c-0.7,4-1.8,7.7-3.5,10.9c1.4,1.5,3,2.7,4.7,3.6c-0.9,0.8-2,2.3-2.6,3.2c-1.5-0.9-3-2.2-4.2-3.5c-1.1,1.5-2.4,2.7-3.9,3.9
		c-0.3-0.6-1-1.2-1.6-1.8v1.7h-3.6V86.1h14.1v6.4c0,1.7-0.3,2.7-1.7,3.3c-1.2,0.6-3.2,0.6-5.7,0.6c-0.1-1.1-0.7-2.5-1.1-3.5
		c1.7,0.1,3.5,0.1,4.1,0.1c0.6,0,0.7-0.1,0.7-0.6v-2.8h-6.6v8.2h8.1l0.7-0.2L297.9,98.4z M286.7,112.9c1.2-1,2.3-2.2,3.2-3.4
		c-1.2-2-2.3-4.4-3.2-7V112.9z M289.5,100.9c0.6,1.8,1.4,3.5,2.4,5.1c0.8-1.6,1.4-3.3,1.8-5.1H289.5z M331.6,85.4v31h-3.4v-13.7
		l-1,0.6c-0.2-1.1-0.7-2.7-1.2-4.2v16.3h-3.1v-12.6l-1.2,0.7c-0.2-1.2-0.6-2.8-1.1-4.4c0,6.4-0.3,12.6-3.2,17.5c-0.7-0.7-2-1.6-3-2
		c1.9-3.4,2.6-7.4,2.8-11.7l-1.6,0.8c-0.2-1.9-0.9-4.8-1.6-7v19.1h-3V114h-6.8v2h-2.7V92.3h3.1V89h-3.5v-3.2h13.3V89h-3.6v3.3h3.3
		v3.9l2.2-1.1c0.5,1.2,0.9,2.5,1.1,3.9V85.4h3.2v10.2l1.1-0.6c0.5,1,0.8,2.3,1.2,3.4V86.1h3.1v9.2l0.8-0.5c0.6,1,1,2.3,1.5,3.3V85.4
		H331.6L331.6,85.4z M311.1,110.9v-8.1h-0.9c-1.5,0-1.9-0.5-1.9-2.4v-4.9h-1v3c0,1.8-0.3,4.3-1.8,6l-1-1v7.4H311.1z M304.3,95.6v7.3
		c0.9-1.4,1-3,1-4.3v-3H304.3z M305.4,105.7h4.7v2.8h-4.7V105.7z M307.1,92.3h1V89h-1V92.3z M311.1,95.6h-1v4.8
		c0,0.5,0.1,0.6,0.3,0.6h0.7V95.6z M339.9,100.9c-1.1-1.1-3.4-2.8-5.1-4l2.5-2.7c1.7,1,4,2.6,5.2,3.6L339.9,100.9z M335.6,114
		c1.2-2.6,3.1-6.9,4.4-10.9l3.3,2c-1.2,3.6-2.6,7.6-4,10.9L335.6,114z M340.7,91.7c-1-1.1-3.3-3-4.9-4.2l2.5-2.6
		c1.6,1,3.9,2.7,5,3.7L340.7,91.7L340.7,91.7z M364,98.9c0.3,0,0.5-0.1,0.6-2.3c0.6,0.5,1.6,0.8,2.4,1c-0.2,3.1-1,3.9-2.5,3.9h-1.5
		c-2,0-2.5-0.7-2.5-3c-1,1.4-2.3,2.7-4.1,3.9c-0.5-0.7-1.4-1.6-2-2.2c-2.6,1.2-3.3,1.7-3.7,2.2c-0.2-0.6-1-1.6-1.5-2
		c0.6-0.5,1.2-1.5,1.2-3.2v-1.2c-1,2.2-2.7,4.3-5.7,6.1c-0.5-0.7-1.5-1.6-2.2-2.2c2.6-1.5,4.1-3.1,4.9-4.7h-3.6
		c0.2-1.7,0.6-4.3,0.7-6.5h-0.9V86H354v2.8h-2.3v1.1c0,0.7,0,1.5-0.2,2.3h3.1v3.1h-1.7v2.6l1.8-0.8c0.2,0.7,0.6,1.5,0.8,2.2
		c1.7-1.2,2.7-2.6,3.4-4H355c0.3-1.7,0.6-4.3,0.7-6.6h-1v-2.8h11v2.8h-2.8v1.5c0,0.6,0,1.2-0.1,1.9h3.3v3.1h-4
		c-0.1,0.3-0.2,0.6-0.3,0.9h1.4v2c0,0.6,0,0.7,0.3,0.7h0.6L364,98.9L364,98.9z M345.2,102.3h19v14h-4v-1.4H349v1.5h-3.7
		C345.2,116.4,345.2,102.3,345.2,102.3z M348.4,92.1c0.1-0.9,0.1-1.6,0.1-2.4v-1h-1.5c-0.1,1.1-0.2,2.3-0.5,3.4H348.4L348.4,92.1z
		 M349,105.5v1.8h11.2v-1.8C360.2,105.5,349,105.5,349,105.5z M360.2,111.9V110H349v1.9C349,111.9,360.2,111.9,360.2,111.9z
		 M359.8,92.1c0.1-0.7,0.1-1.4,0.1-2v-1.5h-1.5c-0.1,1.1-0.2,2.3-0.5,3.5L359.8,92.1L359.8,92.1z M398.9,91.6c0,0,0,1.4-0.1,1.9
		c-0.7,13.5-1.4,18.6-2.8,20.4c-1,1.4-2,1.7-3.5,1.9c-1.2,0.2-3.4,0.2-5.4,0.1c-0.1-1.2-0.6-3.1-1.4-4.2c2.2,0.2,4.2,0.2,5,0.2
		c0.7,0,1.1-0.1,1.6-0.6c1-1,1.7-5.6,2.3-15.7H385c-0.6,7-3,15.3-12.5,20.8c-0.7-1-2.2-2.5-3.2-3.3c8.4-4.5,10.7-11.5,11.3-17.5
		h-10.2v-4.2h10.4v-7h4.3v7C385.2,91.7,398.9,91.7,398.9,91.6L398.9,91.6z"/>
</g>
</svg>
