<?xml version="1.0" encoding="utf-8"?>
<!-- Generator: Adobe Illustrator 23.0.4, SVG Export Plug-In . SVG Version: 6.00 Build 0)  -->
<svg version="1.1" id="圖層_1" xmlns="http://www.w3.org/2000/svg" xmlns:xlink="http://www.w3.org/1999/xlink" x="0px" y="0px"
	 viewBox="0 0 450 130" style="enable-background:new 0 0 450 130;" xml:space="preserve">
<style type="text/css">
	.st0{enable-background:new    ;}
	.st1{fill:#003781;}
	.st2{fill:#3C3C3C;}
</style>
<title>3A infographic_</title>
<g class="st0">
	<path class="st1" d="M175.9,56.8h-14.4l-3.1,11.4h-9l14.2-44.4H174l14.3,44.4H179C179,68.2,175.9,56.8,175.9,56.8z M174.1,49.9
		l-1.3-4.9c-1.4-4.6-2.6-9.7-3.9-14.5h-0.2c-1.1,4.9-2.5,9.9-3.8,14.5l-1.3,4.9H174.1z M192.9,58.8V20.4h8.8v38.9c0,2,1,2.6,1.8,2.6
		c0.4,0,0.6,0,1.2-0.1l1.1,6.5c-1,0.4-2.5,0.8-4.6,0.8C195.1,69.2,192.9,65.2,192.9,58.8L192.9,58.8z M211.8,58.8V20.4h8.8v38.9
		c0,2,1,2.6,1.8,2.6c0.4,0,0.6,0,1.2-0.1l1.1,6.5c-1,0.4-2.5,0.8-4.6,0.8C213.9,69.2,211.8,65.2,211.8,58.8L211.8,58.8z M228.5,51.5
		c0-11.2,7.7-17.7,16.1-17.7s16.1,6.5,16.1,17.7c0,11.1-7.7,17.6-16.1,17.6C236.4,69.2,228.5,62.7,228.5,51.5L228.5,51.5z
		 M251.9,51.5c0-6.4-2.6-10.5-7.1-10.5c-4.6,0-7.1,4.1-7.1,10.5c0,6.3,2.6,10.4,7.1,10.4S251.9,57.8,251.9,51.5z M266.1,51.5
		c0-11.2,8-17.7,17.2-17.7c4.1,0,7.3,1.6,9.8,3.7l-4.2,5.7c-1.7-1.4-3.2-2.2-5.2-2.2c-5.1,0-8.6,4.1-8.6,10.5
		c0,6.3,3.5,10.4,8.3,10.4c2.4,0,4.7-1.1,6.5-2.7l3.5,5.8c-3.2,2.8-7.3,4.1-11,4.1C273.2,69.2,266.1,62.7,266.1,51.5L266.1,51.5z
		 M297.5,59.2c0-7.2,5.8-11,19.3-12.4c-0.1-3.3-1.6-5.8-5.7-5.8c-3.1,0-6.1,1.4-9.2,3.2l-3.2-5.8c4-2.5,8.8-4.4,14-4.4
		c8.5,0,12.9,5.1,12.9,14.8v19.6h-7.2l-0.7-3.6h-0.2c-2.9,2.5-6.3,4.4-10.1,4.4C301.5,69.2,297.5,64.8,297.5,59.2L297.5,59.2z
		 M316.8,58.9v-6.8c-8.2,1.1-10.9,3.3-10.9,6.3c0,2.6,1.9,3.8,4.4,3.8C312.9,62.2,314.6,61,316.8,58.9z M334.8,56.5V41.7H330v-6.5
		l5.2-0.4l1-9h7.4v9h8.3v7h-8.3v14.9c0,3.8,1.6,5.6,4.6,5.6c1.1,0,2.4-0.4,3.3-0.7l1.4,6.4c-1.8,0.6-4.1,1.3-7.1,1.3
		C337.8,69.2,334.8,64,334.8,56.5L334.8,56.5z M357.9,24.4c0-2.9,2.2-4.8,5.3-4.8c3,0,5.2,1.9,5.2,4.8c0,2.8-2.2,4.8-5.2,4.8
		C360,29.2,357.9,27.2,357.9,24.4z M358.6,34.6h8.8v33.6h-8.8V34.6z M374.9,51.5c0-11.2,7.7-17.7,16.1-17.7s16.1,6.5,16.1,17.7
		c0,11.1-7.7,17.6-16.1,17.6S374.9,62.7,374.9,51.5z M398,51.5c0-6.4-2.6-10.5-7.1-10.5s-7.1,4.1-7.1,10.5c0,6.3,2.6,10.4,7.1,10.4
		S398,57.8,398,51.5z M414.5,34.6h7.2l0.6,4.4h0.2c2.9-2.9,6.4-5.3,10.9-5.3c7.3,0,10.4,5,10.4,13.5v20.9H435V48.4
		c0-5.2-1.4-7-4.7-7c-2.8,0-4.5,1.3-7,3.8v23.1h-8.8L414.5,34.6L414.5,34.6z"/>
</g>
<g class="st0">
	<path class="st2" d="M149.2,83.4h16.1v3.4h-4.3V90h4.1v23.2h-3.3v-1.8h-9.1v2.1h-3V89.9h3.8v-3.3h-4.4L149.2,83.4L149.2,83.4z
		 M161.9,108.4v-7.7h-1.5c-1.8,0-2.3-0.6-2.3-2.8v-4.5h-1.6v2.5c0,2-0.5,4.4-2.3,6.1c-0.3-0.5-1.1-1.1-1.7-1.5v7.8h9.2
		C161.9,108.3,161.9,108.4,161.9,108.4z M152.6,93.3v7c1.5-1.4,1.7-3,1.7-4.5v-2.5H152.6z M153.8,103.1h7.2v3h-7.2
		C153.8,106.1,153.8,103.1,153.8,103.1z M157.9,86.6h-1.5v3.3h1.5V86.6z M161.9,93.3h-1.5v4.4c0,0.6,0.1,0.6,0.3,0.6h0.7
		c0.2,0,0.3,0,0.5-0.1V93.3z M175.2,109.5c1.1,0,1.4-0.9,1.6-5.3c0.9,0.7,2.5,1.4,3.6,1.6c-0.5,5.7-1.5,7.4-4.8,7.4H171
		c-3.6,0-4.8-1.1-4.8-5.2V94.4h8.9v-6.9h-9v-3.8h13v14.4h-8.8v9.8c0,1.4,0.1,1.6,1.4,1.6C171.6,109.5,175.2,109.5,175.2,109.5z
		 M213.5,109.8v2.8h-30.3v-2.8h3.9V96.2h8.3c0.1-0.5,0.1-0.9,0.2-1.4h-11.9v-2.9H196c0.1-0.5,0.1-0.9,0.1-1.4h-11v-7.3h26.7v7.3
		h-11.6c-0.1,0.5-0.1,0.9-0.2,1.4h12.6v2.9h-13.1l-0.2,1.4h10.1v13.6H213.5L213.5,109.8z M192.6,85.9h-3.8v1.9h3.8V85.9z
		 M190.9,98.8v1.2h14.4v-1.2H190.9z M205.4,101.9h-14.5v1.4h14.5C205.4,103.3,205.4,101.9,205.4,101.9z M190.9,106.7h14.4v-1.4
		h-14.5L190.9,106.7L190.9,106.7z M190.9,109.8h14.4v-1.2h-14.5L190.9,109.8L190.9,109.8z M196.2,87.9h3.8v-1.9h-3.8V87.9z
		 M203.9,87.9h3.9v-1.9h-3.9V87.9z M228.3,99.1c0,0,0,1-0.1,1.6c-0.5,7.3-0.9,10.4-1.8,11.5c-0.7,0.9-1.6,1.2-2.6,1.4
		c-0.9,0.1-2.5,0.1-4.2,0.1c-0.1-1.1-0.6-2.7-1.1-3.6c1.4,0.1,2.7,0.1,3.4,0.1c0.6,0,0.8-0.1,1.1-0.5c0.6-0.6,0.9-2.5,1.2-6.9h-7.9
		c0.6-2.9,1.1-7.5,1.4-11.2h6.5v-3.9h-7.1v-3.6H228v11.3h-7c-0.1,1.4-0.2,2.6-0.5,3.8h7.8V99.1z M244.7,113.8
		c-0.2-0.6-0.3-1.2-0.7-2c-5.5,0.5-11.2,0.9-15.3,1.1l-0.5-3.9c2.1-0.1,4.7-0.2,7.7-0.3v-3.8h-6.4v-9.6h6.4v-2.7h3.8v2.7h6.6v9.6
		h-1.8c1.6,2.4,3.3,5.4,3.8,7.4C248.4,112.2,244.7,113.8,244.7,113.8z M244.6,93.8c-0.2-0.6-0.7-1.4-1.1-2.1
		c-10.8,0.9-12.4,1.1-13.5,1.5c-0.2-0.7-0.9-2.5-1.4-3.4c0.6-0.2,1.2-0.7,1.8-1.5c0.7-0.8,2.6-3.5,3.7-6.2l4.2,0.9
		c-1.1,2.1-2.8,4.3-4.3,6.2l7.2-0.6c-0.7-0.9-1.4-1.7-2-2.4l2.8-1.7c2.1,2.1,4.5,5.1,5.6,7.2C247.6,91.8,244.6,93.8,244.6,93.8z
		 M235.8,101.6v-3.2h-2.9v3.2H235.8z M239.6,98.6v3.2h3v-3.2C242.7,98.6,239.6,98.6,239.6,98.6z M242.3,108.4
		c-0.5-0.8-0.9-1.5-1.2-2.1l3-1.2h-4.6v3.6L242.3,108.4L242.3,108.4z M279.6,92.1c-0.9,5-2.3,9.2-4.2,12.7c1.8,2.3,3.9,4.1,6.4,5.4
		c-0.9,0.7-2.1,2.3-2.7,3.3c-2.4-1.4-4.3-3.2-6.1-5.3c-1.8,2.3-4.1,4.1-6.6,5.5c-0.5-0.9-1.8-2.5-2.6-3.3c2.9-1.5,5.2-3.3,7-5.6
		c-1.2-2.3-2.4-4.6-3.2-7.3c-0.6,0.9-1.1,1.7-1.8,2.5c-0.5-0.8-1.6-2.3-2.5-3.2v17h-3.9v-8.6c-5.4,1.9-6.5,2.5-7.2,3.2
		c-0.2-1-0.9-2.8-1.6-3.7c0.7-0.3,1.2-1,1.2-2.4V85.9h3.9v16.5l3.6-1.1V82.9h3.9v13.3c2.6-3.3,4.2-8.5,5-13.9l4.1,0.7
		c-0.3,1.9-0.7,3.8-1.1,5.5h10.3v3.8L279.6,92.1L279.6,92.1z M270.3,92.1c-0.1,0.3-0.2,0.6-0.3,0.9c0.8,2.9,1.9,5.6,3.2,8.1
		c1.2-2.6,2.1-5.5,2.6-9H270.3z M315.1,109v3.5h-30.9V109h3.9v-9.6c-0.5,0.2-0.9,0.5-1.4,0.6c-0.6-1-1.5-2.5-2.3-3.3
		c3.2-0.9,7.7-2.9,9.8-4.5l2.8,2c-2.1,1.6-5.5,3.5-8.5,5h22.5v9.8H315.1z M314.7,92h-30v-3.6h8c-0.7-1.5-1.9-3.4-2.9-4.8l3.4-1.5
		c1.5,1.7,2.8,3.9,3.5,5.4l-1.8,0.9h9.8l-1.8-0.7c1-1.6,2.4-3.9,3.2-5.7l4.1,1.2c-1.1,1.9-2.4,3.7-3.5,5.2h8.1
		C314.7,88.4,314.7,92,314.7,92z M291.8,109h2.8v-6.4h-2.8V109z M298.2,102.7v6.4h2.8v-6.4H298.2z M304.4,92.3
		c3.3,1.1,8,2.9,10.5,4.3l-2.3,3.2c-2.4-1.4-7-3.4-10.4-4.6L304.4,92.3L304.4,92.3z M304.7,102.7v6.4h2.8v-6.4H304.7z M347.7,89.2
		c0,0,0,1.4-0.1,1.9c-0.7,13.4-1.4,18.5-2.8,20.3c-1,1.4-2,1.7-3.5,1.9c-1.2,0.2-3.4,0.2-5.4,0.1c-0.1-1.2-0.6-3-1.4-4.2
		c2.1,0.2,4.2,0.2,5,0.2c0.7,0,1.1-0.1,1.6-0.6c1-1,1.7-5.5,2.3-15.5h-9.5c-0.6,7-2.9,15.2-12.4,20.6c-0.7-1-2.1-2.5-3.2-3.3
		c8.3-4.5,10.6-11.4,11.3-17.4h-10.1v-4.2h10.4v-7h4.3v7C334,89.2,347.7,89.2,347.7,89.2z"/>
</g>
<path class="st1" d="M64.8,39.2c-0.3-0.7-0.7-1.3-1.3-1.8c-0.6-0.6-1.5-0.9-2.3-0.9h-8c-1.9,0-3.5,1.6-3.5,3.5s1.6,3.5,3.5,3.5h2.5
	l-24.5,63.3c-12.2-9.4-19.4-24-19.4-39.4C11.8,40.1,34,18,61.2,18c9.8,0,19.5,2.9,27.6,8.4c1.7,1.4,4.2,1.1,5.6-0.7
	c1.4-1.7,1.1-4.2-0.7-5.6c-0.2-0.1-0.3-0.2-0.5-0.3C66.9,2,31.2,9,13.5,35.3c-12.1,18-13.1,41.3-2.4,60.2
	c4.7,8.3,11.4,15.3,19.5,20.4c0.6,0.4,1.4,0.6,2.1,0.6H33c1.7,0.1,3.4-0.9,4-2.5l9-23.2h30.5l9,23.2c0.6,1.5,2.1,2.5,3.7,2.6
	c0.5,0,1-0.1,1.4-0.3c2.1-0.8,3.1-3.1,2.3-5.2L64.8,39.2z M49.1,82.9l12.1-31.3l12,31.4C73.2,83,49.1,83,49.1,82.9z"/>
<path class="st1" d="M82.7,39.2c-1-2-3.4-2.8-5.4-1.7c-1.7,0.9-2.5,2.8-2,4.6l28,72.1c0.6,1.5,2.1,2.6,3.7,2.6c0.5,0,1-0.1,1.4-0.3
	c2.1-0.8,3.1-3.1,2.3-5.2C110.7,111.3,82.7,39.2,82.7,39.2z M128.4,111.2l-28-72.1c-0.9-2-3.3-2.9-5.3-2c-1.9,0.8-2.8,2.9-2.2,4.9
	l28,72.1c0.6,1.5,2.1,2.6,3.7,2.6c0.5,0,1-0.1,1.4-0.3C128.2,115.5,129.2,113.2,128.4,111.2z"/>
</svg>
