<svg id="圖層_1" xmlns="http://www.w3.org/2000/svg" viewBox="0 0 874.9 90.2"><style>.st0{enable-background:new}.st1{fill:#3c3c3c}.st2{fill:#f7a919}.st3{fill:#72abd9}.st4{fill:#80c9d8}</style><title>3A infographic_</title><g class="st0"><path class="st1" d="M122.9 58.1v2H96.1v-2h8.9v-5.4h-6.8v-10h6.8V38h-8.1v-2.1h25.2V38h-8.4v4.6h6.9v10h-6.9V58h9.2zm-15.7-7.3v7.3h4.4v-7.3h6.8v-6.2h-6.8V38h-4.5v6.6h-6.7v6.1h6.8zm23.6-3.8c-1.1-.9-3.4-2.2-5-3.1l1.3-1.6c1.7.8 3.9 2 5.1 2.8l-1.4 1.9zm-4.5 12.9c1.2-2.3 2.9-6.2 4.1-9.5l1.8 1.2c-1.1 3.1-2.6 6.8-3.9 9.5l-2-1.2zm5.5-20.7c-1-1-3.1-2.4-4.8-3.3l1.3-1.6c1.6.9 3.8 2.2 4.8 3.1l-1.3 1.8zm5-4.5h2.1v10.4c0 5.8-.5 11.7-4.3 16.3-.5-.4-1.3-1-1.9-1.3 3.7-4.3 4.1-9.6 4.1-15V34.7zm-2 15.8c-.2-1.9-1.2-4.9-2-7.1l1.7-.6c.9 2.2 1.8 5.2 2.2 7l-1.9.7zm5.8-7.6c.9 2.1 1.8 4.8 2 6.6l-1.6.6c-.3-1.8-1.1-4.6-1.9-6.7l1.5-.5zm11.2-8.2v26.7h-2.1V49.5l-1.6.7c-.5-1.8-1.7-4.6-2.8-6.7v17.2h-2.1V35.1h2.1V43l1.3-.5c1.2 2 2.5 4.7 3.1 6.7V34.7h2.1zm30.7 2.5v1.9h-26.1v-1.9h12.3c-.3-.9-.6-1.9-.9-2.7l2.2-.5c.4 1 .9 2.3 1.2 3.2h11.3zm-1 21.9c0 1.1-.3 1.5-1.1 1.8-.8.3-2.1.3-4 .3-.1-.5-.4-1.2-.7-1.7 1.3.1 2.7 0 3 0 .4 0 .5-.1.5-.5v-8.8h-19.7v11.1h-2.2v-13h24.1v10.8zm-3.2-18.3v6h-17.4v-6h17.4zm-2.7 17.4H165v1.5h-2V52h12.6v6.2zm.4-15.8h-12.9v2.7H176v-2.7zm-11 11.3v2.8h8.5v-2.8H165zm29.2-19.2h2.2v27h-2.2v-8.3c-5.5 2-6.3 2.4-6.9 2.9-.2-.6-.6-1.6-.9-2 .4-.3 1-.8 1-2V37.3h2.2v15.2l4.6-1.5V34.5zm16.6 7.4c-.8 4.7-2.1 8.6-4 11.8 1.8 2.5 3.9 4.5 6.5 5.7-.5.4-1.2 1.2-1.5 1.8-2.5-1.3-4.5-3.3-6.2-5.7-1.8 2.4-4 4.3-6.9 5.8-.2-.5-1-1.4-1.5-1.8 3-1.5 5.3-3.4 7.1-5.9-1.5-2.5-2.7-5.4-3.6-8.5-.7 1.4-1.5 2.7-2.4 3.8-.3-.5-1.1-1.4-1.6-1.9 2.6-3 4.1-7.9 5-13.1l2.3.4c-.3 1.9-.8 3.7-1.3 5.4H213v2.1h-2.2zm-8.9.5c.9 3.4 2 6.5 3.6 9.3 1.4-2.7 2.4-6 3-9.8H202l-.1.5zM243 58.5v2h-27.1v-2h3.9v-9.3h19.5v9.3h3.7zm-.6-16.6h-25.9v-2h7.7c-.6-1.4-1.8-3.5-3-5l1.9-.8c1.3 1.6 2.6 3.6 3.2 5l-1.6.8h9.6l-1.6-.6c1.1-1.4 2.4-3.6 3.1-5.2l2.2.7c-1.1 1.8-2.3 3.8-3.4 5.1h7.8v2zm-16 2.4c-2 1.8-5.8 4-8.4 5.3-.3-.5-.9-1.3-1.3-1.7 2.6-1 6.4-3 8.2-4.6l1.5 1zm-4.6 14.2h3.8v-7.3h-3.8v7.3zm5.8-7.4v7.3h3.8v-7.3h-3.8zm13.7-2.1c-2-1.2-6-3-9.1-4.1l1.1-1.6c3 1.1 7 2.8 9.1 3.9l-1.1 1.8zm-7.9 2.1v7.3h3.8v-7.3h-3.8zm21.1-16.4c-.8 2.1-1.8 4.2-2.9 6.1v20.5h-2.2V44.2c-1 1.4-2 2.6-3.1 3.7-.2-.5-.8-1.6-1.3-2.1 2.9-2.9 5.7-7.3 7.4-11.8l2.1.7zm7.5 22.8c-1.8 1.5-4.7 3-7 3.9-.4-.4-1.2-1.2-1.7-1.6 2.4-.7 5.1-1.9 6.7-3.1l2 .8zm11.1-15.7v1.6h-19.5v-1.6h8.7v-1.6h-6.6v-1.5h6.6v-1.5h-7.4v-1.5h7.4V34h2.2v1.7h7.7v1.5h-7.7v1.5h6.9v1.5h-6.9v1.6h8.6zm-1.9 14.4H256V44.9h15.2v11.3zm-2.2-9.8h-10.9v1.8H269v-1.8zm0 3.2h-10.9v1.9H269v-1.9zm0 3.2h-10.9v1.9H269v-1.9zm-1.7 3.8c2.1 1.1 4.6 2.7 5.8 3.8l-2 1.2c-1.3-1.1-3.8-2.9-5.8-4l2-1z"/></g><path class="st2" d="M75.6 53.9H29.5c-2.8 0-5-2.2-5-5s2.2-5 5-5h46.1c2.8 0 5 2.2 5 5s-2.2 5-5 5z"/><g class="st0"><path class="st1" d="M413.9 34.8c2.8 4.2 7.9 8.2 12.7 10.2-.5.5-1.2 1.4-1.5 2-4.5-2.1-9.3-6-12.4-10-3.1 3.8-8.2 8-12.4 10.2-.3-.6-.9-1.3-1.4-1.8 3.7-1.7 8.2-5.1 11.2-8.4h-5.3v-2.1h9.1zm-.1 23.7h11.7v2h-25.3v-2h11.4v-5h-8.4v-2h8.4V47h-7.1v-2h16.7v2h-7.3v4.6h8.5v2h-8.5v4.9zm25.1-3.3c-3.3 1-6.9 2.2-9.6 3.1l-.5-2.2c1.1-.3 2.4-.7 3.9-1.1v-8.2h-3.4v-2.1h3.4v-6.5h-3.6v-2.1h9.2v2.1h-3.5v6.5h3v2.1h-3v7.6l3.7-1.2.4 2zM456 44c-1.6 2.2-3.6 4.8-5.2 6.5 1.3 2.9 3.3 5.1 6.1 7.1-.5.4-1.1 1-1.4 1.7-3.4-2.5-5.5-5.2-6.9-9v8.4c0 1.4-.4 2-1.2 2.3-.9.4-2.2.5-4.6.5-.1-.6-.5-1.6-.8-2.2 1.7.1 3.3 0 3.7 0 .5 0 .7-.2.7-.7v-7.1c-2.5 2.5-5 4.9-7 6.9l-1.4-1.9c2-1.7 5.3-4.6 8.4-7.4v-7.8h-7.3v-2.1h7.3V34h2.2v5.2h7.9v2.1h-7.9v1.1c.4 2.4.8 4.5 1.5 6.3 1.4-1.7 3-4 4-5.7l1.9 1zm-14.7-.8c1.3 1.7 2.7 4 3.3 5.5l-1.8.9c-.5-1.5-1.9-3.9-3.2-5.6l1.7-.8zm12.2-4.4c-.7-1-2.2-2.4-3.5-3.3l1.3-1.2c1.3.9 2.8 2.2 3.6 3.1l-1.4 1.4zm32.3-1.6v1.9h-26.1v-1.9H472c-.3-.9-.6-1.9-.9-2.7l2.2-.5c.4 1 .9 2.3 1.2 3.2h11.3zm-1 21.9c0 1.1-.3 1.5-1.1 1.8-.8.3-2.1.3-4 .3-.1-.5-.5-1.2-.7-1.7 1.3.1 2.7 0 3 0 .4 0 .5-.1.5-.5v-8.8h-19.7v11.1h-2.2v-13h24.1v10.8zm-3.2-18.3v6h-17.4v-6h17.4zm-2.7 17.4h-10.6v1.5h-2.1V52h12.6v6.2zm.4-15.8h-12.9v2.7h12.9v-2.7zm-11 11.3v2.8h8.5v-2.8h-8.5zm29.2-19.2h2.2v27h-2.2v-8.3c-5.5 2-6.3 2.4-6.9 2.9-.2-.6-.6-1.6-.9-2 .4-.3 1-.8 1-2V37.3h2.2v15.2l4.6-1.5V34.5zm16.6 7.4c-.8 4.7-2.1 8.6-4 11.8 1.8 2.5 3.9 4.5 6.5 5.7-.5.4-1.2 1.2-1.5 1.8-2.5-1.3-4.5-3.3-6.2-5.7-1.8 2.4-4 4.3-6.9 5.8-.2-.5-1-1.4-1.5-1.8 3-1.5 5.3-3.4 7.1-5.9-1.5-2.5-2.7-5.4-3.6-8.5-.7 1.4-1.5 2.7-2.4 3.8-.3-.5-1.1-1.4-1.6-1.9 2.6-3 4.1-7.9 5-13.1l2.3.4c-.3 1.9-.8 3.7-1.3 5.4h10.3v2.1h-2.2zm-8.9.5c.9 3.4 2 6.5 3.6 9.3 1.4-2.7 2.4-6 3-9.8h-6.5l-.1.5zm41.1 16.1v2h-27.1v-2h3.9v-9.3h19.5v9.3h3.7zm-.6-16.6h-25.9v-2h7.7c-.6-1.4-1.8-3.5-3-5l1.9-.8c1.3 1.6 2.6 3.6 3.2 5l-1.6.8h9.6l-1.6-.6c1.1-1.4 2.4-3.6 3.1-5.2l2.2.7c-1.1 1.8-2.3 3.8-3.4 5.1h7.8v2zm-16 2.4c-2 1.8-5.8 4-8.4 5.3-.3-.5-.9-1.3-1.3-1.7 2.6-1 6.4-3 8.2-4.6l1.5 1zm-4.6 14.2h3.8v-7.3h-3.8v7.3zm5.8-7.4v7.3h3.8v-7.3h-3.8zm13.6-2.1c-2-1.2-6-3-9.1-4.1l1.1-1.6c3 1.1 7 2.8 9.1 3.9l-1.1 1.8zm-7.8 2.1v7.3h3.8v-7.3h-3.8zm21.1-16.4c-.8 2.1-1.8 4.2-2.9 6.1v20.5h-2.2V44.2c-1 1.4-2 2.6-3.1 3.7-.2-.5-.8-1.6-1.3-2.1 2.9-2.9 5.7-7.3 7.4-11.8l2.1.7zm7.5 22.8c-1.8 1.5-4.7 3-7 3.9-.4-.4-1.2-1.2-1.7-1.6 2.4-.7 5.1-1.9 6.7-3.1l2 .8zm11.1-15.7v1.6h-19.5v-1.6h8.7v-1.6H559v-1.5h6.6v-1.5h-7.4v-1.5h7.4V34h2.2v1.7h7.7v1.5h-7.7v1.5h6.9v1.5h-6.9v1.6h8.6zm-1.9 14.4h-15.2V44.9h15.2v11.3zm-2.2-9.8h-10.9v1.8h10.9v-1.8zm0 3.2h-10.9v1.9h10.9v-1.9zm0 3.2h-10.9v1.9h10.9v-1.9zm-1.7 3.8c2.1 1.1 4.6 2.7 5.8 3.8l-2 1.2c-1.3-1.1-3.8-2.9-5.8-4l2-1z"/></g><path class="st3" d="M378.3 53.9h-46.1c-2.8 0-5-2.2-5-5s2.2-5 5-5h46.1c2.8 0 5 2.2 5 5s-2.2 5-5 5z"/><g class="st0"><path class="st1" d="M707.1 53c-.7 2.1-2 4.5-3.1 6-.4-.3-1.1-.8-1.6-1.1 1.2-1.4 2.2-3.5 2.8-5.4l1.9.5zm3.7-2.1v10.4h-2.2V50.9h-6V49h6v-3.1h-6.1V44h8.3c.6-1.4 1.3-3.4 1.6-4.7l2 .4c-.5 1.4-1.1 3.1-1.7 4.3h3.8v1.9h-5.8V49h5.4v1.9h-5.3zm5.3-11.9H703v-1.9h5.9c-.4-.9-.9-1.9-1.3-2.7l2.2-.6c.6 1 1.3 2.3 1.7 3.3h4.7V39zm-10 4.8c-.2-1.1-.6-2.8-1.1-4.2l1.8-.4c.6 1.3 1.1 3 1.2 4.1l-1.9.5zm7.6 8.5c1 1.5 2 3.4 2.5 4.7l-1.6.9c-.5-1.3-1.6-3.4-2.5-4.8l1.6-.8zm16-6.1h-3.3v15.1h-2.2V46.2h-4.1v1c0 4.3-.4 10.2-3.1 14.1-.4-.4-1.2-1.1-1.7-1.4 2.5-3.6 2.8-8.7 2.8-12.7V36.9c3.4-.5 7.2-1.4 9.3-2.3l1.8 1.7c-2.5.9-5.9 1.7-9.1 2.2v5.7h9.6v2zm29.8 6v2.1h-26.9v-2.1h2.4l-.5-16c1.7-.5 3.8-1.3 5.1-1.9l1 1.9c-1.3.5-2.8.9-4.2 1.3l.1 3.5h3.4v2h-3.3l.1 3.7h3.4v1.9h-3.3l.1 3.7h3.9V35.5h10.3v16.7h4c.1-1.1.1-2.3.2-3.6H752v-1.9h3.5c0-1.2.1-2.5.1-3.7h-3.4v-1.9h3.4c0-1.4.1-2.7.1-4H752v-1.9h5.6c-.1 5.2-.3 12.3-.5 16.9h2.4zm-16.5 4c-2.4 1.8-6 3.9-8.9 5.1-.3-.5-.9-1.2-1.3-1.7 2.9-1.2 6.5-3.2 8.3-4.8l1.9 1.4zm-.5-4h6.9V37.3h-6.9v14.9zm6-12.8v1.5h-5.1v-1.5h5.1zm-4.7 3.6h4.6v6.9h-4.6V43zm1.1 5.4h2.2v-4h-2.2v4zm5.2 6.3c3.2 1.5 6.6 3.4 8.7 4.8l-1.5 1.7c-2-1.5-5.3-3.4-8.5-5l1.3-1.5zm39.3 3.5v2.2h-26.5v-2.2h12v-7.3h-9.2v-2.2h9.2v-6.6h-10.6V40h13.2c-1.2-1.4-3.3-3.3-5.1-4.6l1.8-1.3c1.9 1.4 4.3 3.4 5.5 4.8l-1.4 1h9.7v2.2h-10.6v6.6h9.4v2.2h-9.4v7.3h12zm11.7-8.4c-.4-.8-1.3-2.5-2.1-3.8v15.4h-2V46.2c-1 3.5-2.4 6.9-3.8 9-.2-.7-.8-1.6-1.1-2.2 1.8-2.5 3.7-7.2 4.6-11.2h-3.8v-2.1h4.2V34h2v5.7h3.2v2.1H799v1.6c.8 1 2.9 4 3.3 4.8l-1.2 1.6zm11.1 8.8h7.3v1.7h-13.7v1.1h-2V52c-.6.7-1.2 1.4-1.9 1.9-.2-.4-.8-1.4-1.2-1.7 1.9-1.5 3.7-3.8 4.8-6.1H803v-5.8h6.8V46h-3.5l1.1.4c-.4.7-.8 1.5-1.2 2.2h3.9c-.2-.6-.5-1.2-.7-1.8l1.9-.5c.3.7.7 1.6.9 2.3h6.6v1.5H812v1.8h5.5v1.6H812v1.8h5.5v1.6H812v1.7zm-5.1-20.4h-5.2v-1.7h5.2V34h2v5.6h-2v-1.4zm-2.4 6.3h3.4v-2.8h-3.4v2.8zm5.5 5.6h-4.4v1.8h4.4v-1.8zm0 3.4h-4.4v1.8h4.4v-1.8zm-4.4 5.1h4.4v-1.8h-4.4v1.8zM818.4 46h-7v-5.8h7V46zm1.3-9.6v1.7h-5.5v1.4h-2V34h2v2.4h5.5zm-3 5.4h-3.5v2.8h3.5v-2.8zm14.4-7.1c-.8 2.1-1.8 4.2-2.9 6.1v20.5H826V44.2c-1 1.4-2 2.6-3.1 3.7-.2-.5-.8-1.6-1.3-2.1 2.9-2.9 5.7-7.3 7.4-11.8l2.1.7zm7.5 22.8c-1.8 1.5-4.7 3-7 3.9-.4-.4-1.2-1.2-1.7-1.6 2.4-.7 5.1-1.9 6.7-3.1l2 .8zm11.1-15.7v1.6h-19.5v-1.6h8.7v-1.6h-6.6v-1.5h6.6v-1.5h-7.4v-1.5h7.4V34h2.2v1.7h7.7v1.5h-7.7v1.5h6.9v1.5h-6.9v1.6h8.6zm-2 14.4h-15.2V44.9h15.2v11.3zm-2.2-9.8h-10.9v1.8h10.9v-1.8zm0 3.2h-10.9v1.9h10.9v-1.9zm0 3.2h-10.9v1.9h10.9v-1.9zm-1.7 3.8c2.1 1.1 4.6 2.7 5.8 3.8l-2 1.2c-1.3-1.1-3.8-2.9-5.8-4l2-1z"/></g><path class="st4" d="M681.6 53.9h-46.1c-2.8 0-5-2.2-5-5s2.2-5 5-5h46.1c2.8 0 5 2.2 5 5s-2.3 5-5 5z"/></svg>