<svg id="圖層_1" xmlns="http://www.w3.org/2000/svg" xmlns:xlink="http://www.w3.org/1999/xlink" viewBox="0 0 763.5 672.8"><style>.st0{fill:#dadada}.st1{opacity:.3}.st2{clip-path:url(#SVGID_2_)}.st3{clip-path:url(#SVGID_4_);fill:url(#SVGID_5_)}.st4{clip-path:url(#SVGID_7_)}.st5{clip-path:url(#SVGID_9_);fill:url(#SVGID_10_)}.st6{opacity:.25;clip-path:url(#SVGID_7_)}.st7{clip-path:url(#SVGID_12_)}.st8{clip-path:url(#SVGID_14_);fill:url(#SVGID_15_)}.st9{clip-path:url(#SVGID_17_)}.st10{clip-path:url(#SVGID_19_);fill:url(#SVGID_20_)}.st11{fill:#f7a919}.st12{fill:#72abd9}.st13{fill:#80c9d8}</style><path class="st0" d="M26.1 635.6l-1.5-2.6 349.7-202.8V25h3v407l-.7.4z"/><path transform="rotate(-60.079 551.73 533.156)" class="st0" d="M550.2 330.3h3V736h-3z"/><g class="st1"><defs><path id="SVGID_1_" d="M91.8 25h641.3v612.7H91.8z"/></defs><clipPath id="SVGID_2_"><use xlink:href="#SVGID_1_" overflow="visible"/></clipPath><g class="st2"><defs><path id="SVGID_3_" d="M375.9 25L91.8 595.8l641.3 41.9L375.9 25zm1 151.4l276.7 411.8-494.5-33.8 217.8-378z"/></defs><clipPath id="SVGID_4_"><use xlink:href="#SVGID_3_" overflow="visible"/></clipPath><linearGradient id="SVGID_5_" gradientUnits="userSpaceOnUse" x1="-517.995" y1="866.027" x2="-517.009" y2="866.027" gradientTransform="rotate(90 -429891.55 -107932.176) scale(621.5)"><stop offset="0" stop-color="#fff"/><stop offset="1" stop-color="#fbd48c"/><stop offset="1" stop-color="#fbd48c"/></linearGradient><path class="st3" d="M91.8 25h641.3v612.7H91.8z"/></g></g><g class="st1"><defs><path id="SVGID_6_" d="M158 176.4h495.5v411.8H158z"/></defs><clipPath id="SVGID_7_"><use xlink:href="#SVGID_6_" overflow="visible"/></clipPath><g class="st4"><defs><path id="SVGID_8_" d="M653.6 588.2L376.9 176.4l-213 369.7 212-285.9 133.4 245.6-349.9 48-.3.6z"/></defs><clipPath id="SVGID_9_"><use xlink:href="#SVGID_8_" overflow="visible"/></clipPath><linearGradient id="SVGID_10_" gradientUnits="userSpaceOnUse" x1="-517.997" y1="866.041" x2="-517.011" y2="866.041" gradientTransform="matrix(0 417.7861 417.7861 0 -361413.438 216588.172)"><stop offset="0" stop-color="#fff"/><stop offset="1" stop-color="#9ac1e4"/><stop offset="1" stop-color="#9ac1e4"/></linearGradient><path class="st5" d="M159.1 176.4h494.5v411.8H159.1z"/></g><g class="st6"><defs><path id="SVGID_11_" d="M158 546.1h5.9v7.9H158z"/></defs><clipPath id="SVGID_12_"><use xlink:href="#SVGID_11_" overflow="visible"/></clipPath><g class="st7"><defs><path id="SVGID_13_" d="M158 554l1.4-.2 4.5-7.7z"/></defs><clipPath id="SVGID_14_"><use xlink:href="#SVGID_13_" overflow="visible"/></clipPath><linearGradient id="SVGID_15_" gradientUnits="userSpaceOnUse" x1="-518.523" y1="868.536" x2="-517.537" y2="868.536" gradientTransform="matrix(0 8.0085 8.0085 0 -6794.728 4698.65)"><stop offset="0" stop-color="#fff"/><stop offset="1" stop-color="#9ac1e4"/><stop offset="1" stop-color="#9ac1e4"/></linearGradient><path class="st8" d="M158 546.1h5.9v7.9H158z"/></g></g></g><g class="st1"><defs><path id="SVGID_16_" d="M158 260.2h351.3v293.7H158z"/></defs><clipPath id="SVGID_17_"><use xlink:href="#SVGID_16_" overflow="visible"/></clipPath><g class="st9"><defs><path id="SVGID_18_" d="M375.9 260.2L158 554l351.3-48.2z"/></defs><clipPath id="SVGID_19_"><use xlink:href="#SVGID_18_" overflow="visible"/></clipPath><linearGradient id="SVGID_20_" gradientUnits="userSpaceOnUse" x1="-518" y1="866.06" x2="-517.015" y2="866.06" gradientTransform="matrix(0 297.9654 297.9654 0 -257722.203 154606.406)"><stop offset="0" stop-color="#fff"/><stop offset="1" stop-color="#80c9d8"/><stop offset="1" stop-color="#80c9d8"/></linearGradient><path class="st10" d="M158 260.2h351.3v293.7H158z"/></g></g><path class="st11" d="M733.1 642.6h-.3L91.5 600.8c-1.7-.1-3.2-1-4-2.5-.8-1.5-.9-3.2-.1-4.7l284-570.8c.8-1.6 2.5-2.7 4.3-2.8 1.8-.1 3.6.9 4.5 2.5l357.2 612.7c.9 1.6.9 3.6-.1 5.1-.9 1.5-2.5 2.3-4.2 2.3zM99.6 591.3L724 632 376.2 35.5 99.6 591.3z"/><path class="st12" d="M652.6 596.2h-.3l-494.5-33.8c-1.7-.1-3.3-1.1-4.1-2.6s-.8-3.4.1-4.8l217.8-378c.9-1.5 2.4-2.4 4.2-2.5 1.7-.1 3.4.8 4.3 2.2l276.7 411.8c1.1 1.6 1.1 3.6.2 5.3-1 1.4-2.7 2.4-4.4 2.4zm-486.2-43.3l476.3 32.6-266.5-396.7-209.8 364.1z"/><path class="st13" d="M158 561.9c-1.7 0-3.4-.9-4.3-2.5-1-1.7-.9-3.9.3-5.5l217.9-293.7c1-1.4 2.7-2.1 4.4-2 1.7.1 3.2 1.1 4 2.6l133.4 245.5c.8 1.4.8 3.2.1 4.6-.7 1.5-2.2 2.5-3.8 2.7l-351.3 48.2c-.2.1-.5.1-.7.1zm217.2-289.4L169.1 550.3l332.3-45.6-126.2-232.2z"/></svg>