<?xml version="1.0" encoding="utf-8"?>
<!-- Generator: Adobe Illustrator 23.0.4, SVG Export Plug-In . SVG Version: 6.00 Build 0)  -->
<svg version="1.1" id="圖層_1" xmlns="http://www.w3.org/2000/svg" xmlns:xlink="http://www.w3.org/1999/xlink" x="0px" y="0px"
	 viewBox="0 0 450 130" style="enable-background:new 0 0 450 130;" xml:space="preserve">
<style type="text/css">
	.st0{fill:#003781;}
	.st1{enable-background:new    ;}
	.st2{fill:#3C3C3C;}
</style>
<title>3A infographic_</title>
<path class="st0" d="M191.5,27.5c-22.4-22.3-58.6-22.3-80.9,0.1c-18.1,18.1-21.9,46.1-9.4,68.5c4.7,8.3,11.4,15.3,19.4,20.4
	c0.6,0.4,1.4,0.6,2.1,0.6c0.3,0,0.6,0,0.9-0.1c1.9,0.4,3.9-0.6,4.6-2.4l5.2-13.3h22.2l2.2,5.6c0.1,0.5,0.3,1,0.6,1.5l2.4,6.2
	c0.6,1.5,2.1,2.5,3.7,2.6c0.5,0,1-0.1,1.4-0.3c2-0.8,3-3.1,2.3-5.1l-2.2-5.5l9-23.1l11.2,28.9c0.6,1.5,2.1,2.5,3.7,2.5
	c0.5,0,1-0.1,1.4-0.3c2-0.8,3.1-3.1,2.3-5.1l-14.8-38.4c-0.6-1.5-2.1-2.5-3.7-2.5s-3.1,1-3.7,2.5l-9.6,24.6L148.2,60
	c-0.1-0.3-0.3-0.7-0.5-0.9c-0.6-1-1.7-1.6-2.9-1.6H137c-1.9,0-3.5,1.6-3.5,3.5s1.6,3.5,3.5,3.5h2.1L122.2,108
	c-12.8-9.3-20.4-24.1-20.4-39.9c-0.4-27.2,21.4-49.6,48.6-50s49.6,21.4,50,48.6v1.4c0,2.2,1.8,4,4,4s4-1.8,4-4
	C208.3,52.8,202.3,38.2,191.5,27.5z M136.4,93.3l8.1-20.8l8.1,20.8H136.4L136.4,93.3z"/>
<path class="st0" d="M130.9,41.8c0,7.3,5.9,13.1,13.1,13.1c7.2,0,13.1-5.9,13.1-13.1s-5.9-13.1-13.1-13.1
	C136.8,28.6,130.9,34.5,130.9,41.8z M151.2,41.8c0,4-3.2,7.2-7.2,7.2s-7.2-3.2-7.2-7.2s3.2-7.2,7.2-7.2S151.2,37.8,151.2,41.8z
	 M175.1,43.5c-6,0-11,4.9-11,10.9s4.9,11,10.9,11s11-4.9,11-10.9C186,48.4,181.1,43.7,175.1,43.5z M175.1,59.4c-2.8,0-5-2.2-5-5
	s2.2-5,5-5s5,2.2,5,5S177.8,59.4,175.1,59.4z"/>
<g class="st1">
	<path class="st0" d="M264.1,56h-14.4l-3.1,11.4h-9L251.8,23h10.4l14.3,44.4h-9.3L264.1,56z M262.1,49.2l-1.3-4.9
		c-1.4-4.6-2.6-9.7-3.9-14.5h-0.2c-1.1,4.9-2.5,9.9-3.8,14.5l-1.3,4.9H262.1z M293.1,45.4c0-14.6,9.4-23.2,20.6-23.2
		c5.6,0,10.1,2.7,13,5.7l-4.7,5.6c-2.2-2.2-4.8-3.7-8.2-3.7c-6.7,0-11.8,5.8-11.8,15.3c0,9.7,4.6,15.5,11.6,15.5
		c3.8,0,6.8-1.8,9.2-4.4l4.7,5.5c-3.7,4.3-8.4,6.5-14.2,6.5C302.2,68.3,293.1,60.2,293.1,45.4z M334,58V19.5h8.8v38.9
		c0,2,1,2.6,1.8,2.6c0.4,0,0.6,0,1.2-0.1l1.1,6.5c-1,0.4-2.5,0.8-4.6,0.8C336.2,68.3,334,64.2,334,58z M351.2,58.3
		c0-7.2,5.8-11,19.3-12.4c-0.1-3.3-1.6-5.8-5.7-5.8c-3.1,0-6.1,1.4-9.2,3.2l-3.2-5.8c4-2.5,8.8-4.4,14-4.4c8.5,0,12.9,5.1,12.9,14.8
		v19.6h-7.2l-0.7-3.6h-0.2c-2.9,2.5-6.3,4.4-10.1,4.4C355.2,68.3,351.2,64,351.2,58.3L351.2,58.3z M370.6,58.2v-6.8
		c-8.2,1.1-10.9,3.3-10.9,6.3c0,2.6,1.9,3.8,4.4,3.8C366.6,61.4,368.5,60.2,370.6,58.2z M385.2,63.5l4-5.5c3,2.3,5.9,3.7,9,3.7
		c3.4,0,4.9-1.4,4.9-3.5c0-2.5-3.5-3.7-7-5c-4.3-1.6-9.2-4.2-9.2-9.8c0-6.1,4.9-10.3,12.5-10.3c4.9,0,8.6,2,11.5,4.1l-4,5.3
		c-2.4-1.7-4.7-2.9-7.3-2.9c-3,0-4.4,1.3-4.4,3.2c0,2.5,3.3,3.4,6.8,4.7c4.4,1.7,9.4,3.9,9.4,10.1c0,5.9-4.6,10.6-13.4,10.6
		C393.5,68.3,388.5,66.3,385.2,63.5z M414.9,63.5l4-5.5c3,2.3,5.9,3.7,9,3.7c3.4,0,4.9-1.4,4.9-3.5c0-2.5-3.5-3.7-7-5
		c-4.3-1.6-9.2-4.2-9.2-9.8c0-6.1,4.9-10.3,12.5-10.3c4.9,0,8.6,2,11.5,4.1l-4,5.3c-2.4-1.7-4.7-2.9-7.3-2.9c-3,0-4.4,1.3-4.4,3.2
		c0,2.5,3.3,3.4,6.8,4.7c4.4,1.7,9.4,3.9,9.4,10.1c0,5.9-4.6,10.6-13.4,10.6C423.2,68.3,418.2,66.3,414.9,63.5z"/>
</g>
<g class="st1">
	<path class="st2" d="M246,108c2.1-0.2,4.3-0.4,6.5-0.7l0.1,3.5c-5.8,0.8-12,1.5-16.4,1.9l-0.4-3.6c1.9-0.2,4.3-0.3,6.7-0.7v-2.6h-5
		v-3.2h5v-2.2h-5.7v-3.2h3.6c-0.4-1-1.3-2.2-2.1-3.1l1.7-0.9h-4.3v-3.2h4.6v-1.6l-1.7,1.2c-0.4-1.1-1.7-2.8-2.8-4l2.5-1.6
		c0.7,0.7,1.5,1.6,2,2.5v-3.6h3.1V90h1.6v-7.2h3.2v3.9c0.7-0.9,1.5-1.8,1.8-2.6l3.1,1.7c-1.3,1.5-2.8,2.9-3.8,3.9l-1.1-0.7v1h4.4
		v3.2h-4.4l2.2,0.8c-0.6,1.1-1.2,2.2-1.8,3.4h2.9v3.2H246v2.2h5v3.2h-5L246,108L246,108z M241.4,93c0.8,1,1.6,2.1,1.9,3l-2,1.1h3.6
		c0.7-1.1,1.5-2.8,1.8-4.1H241.4z M266.2,94.9h-2.6v14.7c0,2-0.4,3-1.7,3.7c-1.1,0.7-2.9,0.8-5.6,0.8c-0.2-1-0.8-2.8-1.3-3.8
		c1.7,0.1,3.4,0.1,3.9,0.1s0.8-0.1,0.8-0.8V94.9h-7.2v-3.7h7.2v-8.4h3.9v8.4h2.6L266.2,94.9L266.2,94.9z M255.3,105.3
		c-0.2-2-1.2-5.1-2.5-7.6l3.2-1.1c1.2,2.3,2.3,5.4,2.7,7.5L255.3,105.3L255.3,105.3z M281,100.5c-1.2,0.3-2.6,0.7-3.9,1v7.9
		c0,1.9-0.3,2.9-1.5,3.5c-1.1,0.7-2.8,0.8-5.1,0.8c-0.1-1-0.7-2.6-1.1-3.6h3.1c0.4,0,0.7-0.2,0.7-0.7v-6.9l-3.9,1l-0.8-3.9
		c1.3-0.2,2.9-0.6,4.7-1v-5.9h-4V89h4v-6.4h3.9V89h3.6v3.7h-3.6v5l3.5-0.9L281,100.5z M296.9,110.2c0.2,0,0.3,0,0.4-0.1
		c0.1-0.2,0.2-0.4,0.2-1.1c0-0.6,0.1-2.1,0.1-3.9c0.7,0.7,1.9,1.2,2.9,1.6c0,1.8-0.1,3.9-0.3,4.8c-0.2,0.9-0.6,1.3-1.1,1.8
		s-1.3,0.6-2,0.6h-1.9c-0.8,0-1.8-0.2-2.3-0.9c-0.6-0.7-0.9-1.3-0.9-3.9V98.2h-4.6v2.3c0,4.5-1.1,10.3-6.6,13.7
		c-0.6-0.9-2-2.5-2.7-3c4.8-2.9,5.3-7.2,5.3-10.6v-6h12.5v14.3c0,0.8,0,1.1,0.1,1.2s0.2,0.2,0.3,0.2L296.9,110.2L296.9,110.2z
		 M300.4,91.9h-19.1v-3.8h7c-0.3-1.3-1.1-3.4-1.8-4.8l3.8-1c0.8,1.5,1.6,3.6,2,4.8l-3.1,0.9h11.2L300.4,91.9L300.4,91.9z
		 M308.3,98.2c-1.2-1-4-2.5-5.9-3.6l2.2-2.9c1.8,0.9,4.7,2.2,6,3.1C310.7,94.9,308.3,98.2,308.3,98.2z M311.6,102.9
		c-1.5,3.6-3.4,7.5-5,10.7l-3.6-2.3c1.6-2.6,3.8-6.8,5.5-10.7L311.6,102.9L311.6,102.9z M310.1,89.3c-1.2-1-4-2.6-5.8-3.7l2.2-2.9
		c1.8,0.9,4.6,2.5,5.9,3.4L310.1,89.3L310.1,89.3z M331.7,96.2c-1,4.3-2.8,7.8-5,10.7c2,1.5,4.5,2.8,7.3,3.5c-0.9,0.8-2,2.3-2.6,3.4
		c-2.8-0.9-5.3-2.3-7.4-4.1c-2.1,1.8-4.5,3.1-6.9,4.1c-0.6-0.9-1.7-2.5-2.5-3.2c-0.4,1.1-1.1,2.2-1.8,3.1c-0.7-0.6-2.3-1.6-3.4-2
		c3.4-4.7,3.7-11.5,3.7-16.3v-8.6h7.7v-4.5h3.9v4.5h5.5l0.7-0.1l2.9,0.7c-0.7,2.6-1.8,5.4-2.7,7.2l-3.5-1c0.3-0.8,0.8-1.9,1.1-3h-4
		v4.7h3.8l0.7-0.1L331.7,96.2L331.7,96.2z M321.2,107.2c-1.8-2.2-3.2-4.7-4.4-7.5c-0.2,3.6-0.9,7.6-2.2,11.1
		C317,109.8,319.3,108.7,321.2,107.2z M317,90.8v4.7h3.9v-4.7H317z M320.3,99c0.9,2,2.1,3.8,3.5,5.5c1.3-1.6,2.3-3.4,3.1-5.5H320.3z
		 M366.6,90.2V92c-0.3,13.8-0.6,18.6-1.7,20.1c-0.8,1.1-1.6,1.5-2.7,1.7c-1,0.2-2.6,0.2-4.1,0.1c-0.1-1.1-0.6-2.7-1.1-3.8
		c1.5,0.1,2.8,0.2,3.4,0.2s0.9-0.1,1.1-0.6c0.7-0.9,1-5,1.2-15.9h-3c-0.4,9-2,15.9-7.6,20.4c-0.4-0.8-1.5-1.9-2.3-2.7
		c-4.8,0.6-9.6,1-13.3,1.3l-0.4-3.4c1.9-0.1,4.3-0.3,6.8-0.4V107h-5.9v-2.8h5.9v-1.3H337V92.4h5.8v-1.3h-6.6v-2.9h6.6v-1.3
		c-1.9,0.1-3.8,0.2-5.7,0.2c-0.1-0.8-0.6-2-0.9-2.8c4.9-0.2,10.7-0.9,14.4-1.7l1.8,3c-1.8,0.3-3.8,0.7-6,0.9v1.7h6.5v1.9h3.1v-7h3.8
		c0,2.5,0,4.8-0.1,7C359.7,90.1,366.6,90.2,366.6,90.2z M340.2,96.6h2.6v-1.5h-2.6V96.6z M342.8,100.5V99h-2.6v1.5H342.8z
		 M346.5,108.7c1.9-0.1,3.9-0.3,5.8-0.4c2.6-3.6,3.5-8.4,3.7-14.4h-3v-2.6h-6.5v1.3h5.9v10.4h-5.9v1.3h6v2.8h-6
		C346.5,107.1,346.5,108.7,346.5,108.7z M349.1,96.6v-1.5h-2.6v1.5H349.1z M346.5,99v1.5h2.6V99H346.5z M399.2,89.6
		c0,0,0,1.3-0.1,1.9c-0.7,13.3-1.3,18.3-2.8,20.1c-1,1.3-2,1.7-3.5,1.9c-1.2,0.2-3.4,0.2-5.4,0.1c-0.1-1.2-0.6-3-1.3-4.1
		c2.1,0.2,4.1,0.2,4.9,0.2c0.7,0,1.1-0.1,1.6-0.6c1-1,1.7-5.5,2.2-15.4h-9.4c-0.6,6.9-2.9,15.1-12.3,20.5c-0.7-1-2.1-2.5-3.1-3.2
		c8.3-4.5,10.5-11.3,11.2-17.2h-10.1v-4.1h10.3v-6.9h4.3v6.9C385.7,89.6,399.2,89.6,399.2,89.6z"/>
</g>
</svg>
