<?xml version="1.0" encoding="utf-8"?>
<!-- Generator: Adobe Illustrator 23.0.4, SVG Export Plug-In . SVG Version: 6.00 Build 0)  -->
<svg version="1.1" id="圖層_1" xmlns="http://www.w3.org/2000/svg" xmlns:xlink="http://www.w3.org/1999/xlink" x="0px" y="0px"
	 viewBox="0 0 26.1 44.6" style="enable-background:new 0 0 26.1 44.6;" xml:space="preserve">
<style type="text/css">
	.st0{fill:#003781;}
	.st1{fill:#FFFFFF;}
</style>
<g>
	<g>
		<path class="st0" d="M12.8,6.1c-0.1-0.1-0.2-0.3-0.3-0.4c-0.1-0.1-0.3-0.2-0.5-0.2h-1.7c-0.4,0-0.7,0.3-0.7,0.7
			C9.6,6.7,9.9,7,10.3,7h0.5L5.7,20.2c-2.6-2-4.1-5-4.1-8.2C1.7,6.3,6.3,1.7,12,1.7c2.1,0,4.1,0.6,5.8,1.8c0.4,0.3,0.9,0.2,1.2-0.2
			c0.3-0.4,0.2-0.9-0.2-1.2l0,0c-5.5-3.7-13-2.3-16.7,3.3c-2.5,3.8-2.7,8.6-0.5,12.6c1,1.7,2.4,3.2,4.1,4.3c0.1,0.1,0.3,0.1,0.4,0.1
			h0.1c0.4,0,0.7-0.2,0.8-0.5l1.9-4.9h6.4l1.9,4.9c0.1,0.4,0.6,0.7,1.1,0.5c0.4-0.1,0.7-0.6,0.5-1.1c0,0,0,0,0-0.1L12.8,6.1z
			 M9.5,15.2L12,8.7l2.5,6.5H9.5z"/>
		<path class="st0" d="M16.5,6.1c-0.1-0.4-0.6-0.7-1.1-0.5c-0.4,0.1-0.7,0.6-0.5,1.1c0,0,0,0,0,0.1l5.8,15.1
			c0.1,0.4,0.6,0.7,1.1,0.5c0.4-0.1,0.7-0.6,0.5-1.1c0,0,0,0,0-0.1L16.5,6.1z"/>
		<path class="st0" d="M26.1,21.2L20.2,6.1c-0.1-0.4-0.6-0.7-1.1-0.5s-0.7,0.6-0.5,1.1c0,0,0,0,0,0.1l5.8,15.1
			c0.2,0.4,0.7,0.6,1.1,0.4C26,22,26.2,21.6,26.1,21.2z"/>
	</g>
</g>
<g>
	<g>
		<path class="st1" d="M12.8,28.4c-0.1-0.1-0.2-0.3-0.3-0.4c-0.1-0.1-0.3-0.2-0.5-0.2h-1.7c-0.4,0-0.7,0.3-0.7,0.7
			c0,0.4,0.3,0.7,0.7,0.7h0.5L5.7,42.6c-2.6-2-4.1-5-4.1-8.2C1.7,28.6,6.3,24,12,24c2.1,0,4.1,0.6,5.8,1.8c0.4,0.3,0.9,0.2,1.2-0.2
			c0.3-0.4,0.2-0.9-0.2-1.2l0,0c-5.5-3.7-13-2.3-16.7,3.3c-2.5,3.8-2.7,8.6-0.5,12.6c1,1.7,2.4,3.2,4.1,4.3c0.1,0.1,0.3,0.1,0.4,0.1
			h0.1c0.4,0,0.7-0.2,0.8-0.5l1.9-4.9h6.4l1.9,4.9c0.1,0.4,0.6,0.7,1.1,0.5c0.4-0.1,0.7-0.6,0.5-1.1c0,0,0,0,0-0.1L12.8,28.4z
			 M9.5,37.6L12,31l2.5,6.5H9.5z"/>
		<path class="st1" d="M16.5,28.4c-0.1-0.4-0.6-0.7-1.1-0.5c-0.4,0.1-0.7,0.6-0.5,1.1c0,0,0,0,0,0.1l5.8,15.1
			c0.1,0.4,0.6,0.7,1.1,0.5c0.4-0.1,0.7-0.6,0.5-1.1c0,0,0,0,0-0.1L16.5,28.4z"/>
		<path class="st1" d="M26.1,43.5l-5.8-15.1c-0.1-0.4-0.6-0.7-1.1-0.5s-0.7,0.6-0.5,1.1c0,0,0,0,0,0.1l5.8,15.1
			c0.2,0.4,0.7,0.6,1.1,0.4C26,44.4,26.2,43.9,26.1,43.5z"/>
	</g>
</g>
</svg>
