<?xml version="1.0" encoding="utf-8"?>
<!-- Generator: Adobe Illustrator 23.0.4, SVG Export Plug-In . SVG Version: 6.00 Build 0)  -->
<svg version="1.1" id="圖層_1" xmlns="http://www.w3.org/2000/svg" xmlns:xlink="http://www.w3.org/1999/xlink" x="0px" y="0px"
	 viewBox="0 0 24.9 46.2" style="enable-background:new 0 0 24.9 46.2;" xml:space="preserve">
<style type="text/css">
	.st0{fill:#003781;}
	.st1{fill:#FFFFFF;}
</style>
<path class="st0" d="M21.2,3.6c-4.9-4.9-12.7-4.9-17.6,0c-3.9,3.9-4.8,10-2,14.9c1,1.8,2.5,3.3,4.2,4.4c0.1,0.1,0.3,0.1,0.5,0.1h0.1
	c0.4,0,0.7-0.2,0.9-0.5l0,0c0,0,0.1-0.1,0.1-0.2c0.9-1.5,2-2.9,3.3-4.2c1.1-1.1,2.3-2,3.7-2.8c0.2-0.1,0.4-0.2,0.5-0.3l2.9,7.4
	c0.2,0.5,0.6,0.7,1.1,0.5c0.5-0.2,0.7-0.6,0.5-1.1c0,0,0,0,0-0.1l-2.9-7.4c0.6-0.2,1.3-0.3,2-0.3l0,0.7c0,0.4,0.4,0.7,0.7,0.5l1-0.8
	l1-0.8c0.3-0.3,0.3-0.7,0-0.9c0,0,0,0-0.1-0.1L20,12l-1.1-0.7c-0.3-0.2-0.7,0.1-0.6,0.5l0,0.6c-0.8,0-1.7,0.2-2.5,0.4l-2.6-6.6
	C13.2,6.1,13.1,6,13,5.9c-0.1-0.1-0.3-0.2-0.5-0.2h-1.7c-0.4,0-0.8,0.3-0.8,0.8c0,0.4,0.3,0.8,0.8,0.8l0,0h0.5L5.9,20.9
	c-2.7-2-4.2-5.2-4.2-8.5c0-5.9,4.8-10.7,10.7-10.7c5.9,0,10.7,4.8,10.7,10.7c0,0.5,0.4,0.9,0.9,0.9c0.5,0,0.9-0.4,0.9-0.9
	C24.9,9.1,23.6,6,21.2,3.6z M14.2,13.5c-0.3,0.1-0.5,0.2-0.7,0.4c-1.5,0.8-2.9,1.9-4.1,3.1l0,0l3.1-8L14.2,13.5z"/>
<path class="st1" d="M21.2,26.8c-4.9-4.9-12.7-4.9-17.6,0c-3.9,3.9-4.8,10-2,14.9c1,1.8,2.5,3.3,4.2,4.4c0.1,0.1,0.3,0.1,0.5,0.1
	h0.1c0.4,0,0.7-0.2,0.9-0.5l0,0c0,0,0.1-0.1,0.1-0.2c0.9-1.5,2-2.9,3.3-4.2c1.1-1.1,2.3-2,3.7-2.8c0.2-0.1,0.4-0.2,0.5-0.3l2.9,7.4
	c0.2,0.5,0.6,0.7,1.1,0.5s0.7-0.6,0.5-1.1c0,0,0,0,0-0.1l-2.9-7.4c0.6-0.2,1.3-0.3,2-0.3l0,0.7c0,0.4,0.4,0.7,0.7,0.5l1-0.8l1-0.8
	c0.3-0.3,0.3-0.7,0-0.9c0,0,0,0-0.1-0.1L20,35.1l-1.1-0.7c-0.3-0.2-0.7,0.1-0.6,0.5l0,0.6c-0.8,0-1.7,0.2-2.5,0.4l-2.6-6.6
	c-0.1-0.1-0.2-0.3-0.3-0.4c-0.1-0.1-0.3-0.2-0.5-0.2h-1.7c-0.4,0-0.8,0.3-0.8,0.8s0.3,0.8,0.8,0.8l0,0h0.5L5.9,44
	c-2.7-2-4.2-5.2-4.2-8.5c0-5.9,4.8-10.7,10.7-10.7c5.9,0,10.7,4.8,10.7,10.7c0,0.5,0.4,0.9,0.9,0.9c0.5,0,0.9-0.4,0.9-0.9
	C24.9,32.2,23.6,29.1,21.2,26.8z M14.2,36.6c-0.3,0.1-0.5,0.2-0.7,0.4c-1.5,0.8-2.9,1.9-4.1,3.1l0,0l3.1-8L14.2,36.6z"/>
</svg>
