<?xml version="1.0" encoding="utf-8"?>
<!-- Generator: Adobe Illustrator 23.0.4, SVG Export Plug-In . SVG Version: 6.00 Build 0)  -->
<svg version="1.1" id="圖層_1" xmlns="http://www.w3.org/2000/svg" xmlns:xlink="http://www.w3.org/1999/xlink" x="0px" y="0px"
	 viewBox="0 0 24.9 46.2" style="enable-background:new 0 0 24.9 46.2;" xml:space="preserve">
<style type="text/css">
	.st0{fill:#003781;}
	.st1{fill:#FFFFFF;}
</style>
<g>
	<path class="st0" d="M21.2,3.6c-4.9-4.9-12.7-4.9-17.6,0c-3.9,3.9-4.8,10-2,14.9c1,1.8,2.5,3.3,4.2,4.4c0.6,0.3,1.3,0.1,1.6-0.4
		l1.1-2.9h4.9l0.5,1.2c0,0.1,0.1,0.2,0.1,0.3l0.5,1.3c0.2,0.4,0.7,0.6,1.1,0.5c0.4-0.2,0.6-0.7,0.5-1.1l-0.5-1.2l2-5l2.4,6.3
		c0.2,0.4,0.7,0.7,1.1,0.5c0.4-0.2,0.7-0.7,0.5-1.1c0,0,0,0,0,0L18.5,13c-0.1-0.3-0.4-0.6-0.8-0.6c-0.4,0-0.7,0.2-0.8,0.6l-2.1,5.3
		l-3-7.6c0-0.1-0.1-0.1-0.1-0.2c-0.1-0.2-0.4-0.3-0.6-0.3H9.4c-0.4,0-0.8,0.3-0.8,0.7c0,0.4,0.3,0.8,0.7,0.8c0,0,0,0,0.1,0h0.5
		l-3.7,9.5c-2.8-2-4.4-5.2-4.4-8.7c0-5.9,4.8-10.7,10.7-10.7c5.9,0,10.7,4.8,10.7,10.7c0,0.5,0.4,0.9,0.8,0.9c0.5,0,0.9-0.4,0.9-0.8
		c0,0,0,0,0-0.1C24.9,9.1,23.6,6,21.2,3.6z M9.2,17.9l1.8-4.5l1.8,4.5H9.2z"/>
	<path class="st0" d="M8.1,6.7c0,1.6,1.3,2.9,2.9,2.9s2.9-1.3,2.9-2.9s-1.3-2.9-2.9-2.9C9.3,3.9,8.1,5.1,8.1,6.7z M12.5,6.7
		c0,0.9-0.7,1.6-1.6,1.6S9.4,7.6,9.4,6.7s0.7-1.6,1.6-1.6S12.5,5.9,12.5,6.7L12.5,6.7z"/>
	<path class="st0" d="M17.7,7.1c-1.3,0-2.4,1.1-2.4,2.4s1.1,2.4,2.4,2.4S20,10.8,20,9.5C20,8.2,19,7.1,17.7,7.1z M17.7,10.6
		c-0.6,0-1.1-0.5-1.1-1.1c0-0.6,0.5-1.1,1.1-1.1c0.6,0,1.1,0.5,1.1,1.1l0,0C18.7,10.1,18.3,10.6,17.7,10.6z"/>
</g>
<g>
	<path class="st1" d="M21.2,26.8c-4.9-4.9-12.7-4.9-17.6,0c-3.9,3.9-4.8,10-2,14.9c1,1.8,2.5,3.3,4.2,4.4c0.6,0.3,1.3,0.1,1.6-0.4
		l1.1-2.9h4.9l0.5,1.2c0,0.1,0.1,0.2,0.1,0.3l0.5,1.3c0.2,0.4,0.7,0.6,1.1,0.5c0.4-0.2,0.6-0.7,0.5-1.1l-0.5-1.2l2-5l2.4,6.3
		c0.2,0.4,0.7,0.7,1.1,0.5c0.4-0.2,0.7-0.7,0.5-1.1c0,0,0,0,0,0l-3.2-8.3c-0.1-0.3-0.4-0.6-0.8-0.6c-0.4,0-0.7,0.2-0.8,0.5l-2.1,5.3
		l-3-7.6c0-0.1-0.1-0.1-0.1-0.2c-0.1-0.2-0.4-0.3-0.6-0.3H9.4c-0.4,0-0.8,0.3-0.8,0.7c0,0.4,0.3,0.8,0.7,0.8c0,0,0,0,0.1,0h0.5
		l-3.7,9.5c-2.8-2-4.4-5.2-4.4-8.7c0-5.9,4.8-10.7,10.7-10.7c5.9,0,10.7,4.8,10.7,10.7c0,0.5,0.4,0.9,0.8,0.9c0.5,0,0.9-0.4,0.9-0.8
		c0,0,0,0,0-0.1C24.9,32.3,23.6,29.1,21.2,26.8z M9.2,41l1.8-4.5l1.8,4.5H9.2z"/>
	<path class="st1" d="M8.1,29.8c0,1.6,1.3,2.9,2.9,2.9s2.9-1.3,2.9-2.9c0-1.6-1.3-2.9-2.9-2.9C9.3,27,8.1,28.3,8.1,29.8z M12.5,29.8
		c0,0.9-0.7,1.6-1.6,1.6s-1.6-0.7-1.6-1.6s0.7-1.6,1.6-1.6S12.5,29,12.5,29.8L12.5,29.8z"/>
	<path class="st1" d="M17.7,30.2c-1.3,0-2.4,1.1-2.4,2.4c0,1.3,1.1,2.4,2.4,2.4s2.4-1.1,2.4-2.4C20,31.3,19,30.2,17.7,30.2z
		 M17.7,33.7c-0.6,0-1.1-0.5-1.1-1.1c0-0.6,0.5-1.1,1.1-1.1c0.6,0,1.1,0.5,1.1,1.1l0,0C18.7,33.2,18.3,33.7,17.7,33.7z"/>
</g>
</svg>
